<?xml version="1.0" encoding="UTF-8"?>
<!DOCTYPE svg PUBLIC "-//W3C//DTD SVG 1.1//EN" "http://www.w3.org/Graphics/SVG/1.1/DTD/svg11.dtd">
<svg version="1.2" width="16mm" height="20.6mm" viewBox="0 0 1600 2060" preserveAspectRatio="xMidYMid" fill-rule="evenodd" stroke-width="28.222" stroke-linejoin="round" xmlns="http://www.w3.org/2000/svg" xmlns:ooo="http://xml.openoffice.org/svg/export" xmlns:xlink="http://www.w3.org/1999/xlink" xmlns:presentation="http://sun.com/xmlns/staroffice/presentation" xmlns:smil="http://www.w3.org/2001/SMIL20/" xmlns:anim="urn:oasis:names:tc:opendocument:xmlns:animation:1.0" xmlns:svg="urn:oasis:names:tc:opendocument:xmlns:svg-compatible:1.0" xml:space="preserve">
 <defs class="ClipPathGroup">
  <clipPath id="presentation_clip_path" clipPathUnits="userSpaceOnUse">
   <rect x="0" y="0" width="1600" height="2060"/>
  </clipPath>
  <clipPath id="presentation_clip_path_shrink" clipPathUnits="userSpaceOnUse">
   <rect x="1" y="2" width="1597" height="2056"/>
  </clipPath>
 </defs>
 <defs class="TextShapeIndex">
  <g ooo:slide="id1" ooo:id-list="id3"/>
 </defs>
 <defs class="EmbeddedBulletChars">
  <g id="bullet-char-template-57356" transform="scale(0.00048828125,-0.00048828125)">
   <path d="M 580,1141 L 1163,571 580,0 -4,571 580,1141 Z"/>
  </g>
  <g id="bullet-char-template-57354" transform="scale(0.00048828125,-0.00048828125)">
   <path d="M 8,1128 L 1137,1128 1137,0 8,0 8,1128 Z"/>
  </g>
  <g id="bullet-char-template-10146" transform="scale(0.00048828125,-0.00048828125)">
   <path d="M 174,0 L 602,739 174,1481 1456,739 174,0 Z M 1358,739 L 309,1346 659,739 1358,739 Z"/>
  </g>
  <g id="bullet-char-template-10132" transform="scale(0.00048828125,-0.00048828125)">
   <path d="M 2015,739 L 1276,0 717,0 1260,543 174,543 174,936 1260,936 717,1481 1274,1481 2015,739 Z"/>
  </g>
  <g id="bullet-char-template-10007" transform="scale(0.00048828125,-0.00048828125)">
   <path d="M 0,-2 C -7,14 -16,27 -25,37 L 356,567 C 262,823 215,952 215,954 215,979 228,992 255,992 264,992 276,990 289,987 310,991 331,999 354,1012 L 381,999 492,748 772,1049 836,1024 860,1049 C 881,1039 901,1025 922,1006 886,937 835,863 770,784 769,783 710,716 594,584 L 774,223 C 774,196 753,168 711,139 L 727,119 C 717,90 699,76 672,76 641,76 570,178 457,381 L 164,-76 C 142,-110 111,-127 72,-127 30,-127 9,-110 8,-76 1,-67 -2,-52 -2,-32 -2,-23 -1,-13 0,-2 Z"/>
  </g>
  <g id="bullet-char-template-10004" transform="scale(0.00048828125,-0.00048828125)">
   <path d="M 285,-33 C 182,-33 111,30 74,156 52,228 41,333 41,471 41,549 55,616 82,672 116,743 169,778 240,778 293,778 328,747 346,684 L 369,508 C 377,444 397,411 428,410 L 1163,1116 C 1174,1127 1196,1133 1229,1133 1271,1133 1292,1118 1292,1087 L 1292,965 C 1292,929 1282,901 1262,881 L 442,47 C 390,-6 338,-33 285,-33 Z"/>
  </g>
  <g id="bullet-char-template-9679" transform="scale(0.00048828125,-0.00048828125)">
   <path d="M 813,0 C 632,0 489,54 383,161 276,268 223,411 223,592 223,773 276,916 383,1023 489,1130 632,1184 813,1184 992,1184 1136,1130 1245,1023 1353,916 1407,772 1407,592 1407,412 1353,268 1245,161 1136,54 992,0 813,0 Z"/>
  </g>
  <g id="bullet-char-template-8226" transform="scale(0.00048828125,-0.00048828125)">
   <path d="M 346,457 C 273,457 209,483 155,535 101,586 74,649 74,723 74,796 101,859 155,911 209,963 273,989 346,989 419,989 480,963 531,910 582,859 608,796 608,723 608,648 583,586 532,535 482,483 420,457 346,457 Z"/>
  </g>
  <g id="bullet-char-template-8211" transform="scale(0.00048828125,-0.00048828125)">
   <path d="M -4,459 L 1135,459 1135,606 -4,606 -4,459 Z"/>
  </g>
  <g id="bullet-char-template-61548" transform="scale(0.00048828125,-0.00048828125)">
   <path d="M 173,740 C 173,903 231,1043 346,1159 462,1274 601,1332 765,1332 928,1332 1067,1274 1183,1159 1299,1043 1357,903 1357,740 1357,577 1299,437 1183,322 1067,206 928,148 765,148 601,148 462,206 346,322 231,437 173,577 173,740 Z"/>
  </g>
 </defs>
 <g>
  <g id="id2" class="Master_Slide">
   <g id="bg-id2" class="Background"/>
   <g id="bo-id2" class="BackgroundObjects"/>
  </g>
 </g>
 <g class="SlideGroup">
  <g>
   <g id="container-id1">
    <g id="id1" class="Slide" clip-path="url(#presentation_clip_path)">
     <g class="Page">
      <g class="Graphic">
       <g id="id3">
        <rect class="BoundingBox" stroke="none" fill="none" x="0" y="0" width="1601" height="2061"/>
        <path fill="rgb(0,0,0)" stroke="none" d="M 145,1740 C 131,1740 118,1738 105,1733 92,1728 81,1721 72,1712 62,1703 55,1691 50,1677 44,1663 41,1647 41,1629 41,1611 44,1594 50,1580 56,1566 63,1554 73,1544 82,1534 94,1527 106,1522 119,1517 133,1514 147,1514 161,1514 174,1517 185,1523 197,1528 206,1535 214,1543 L 187,1574 C 181,1569 175,1565 169,1562 163,1558 156,1557 148,1557 140,1557 133,1558 126,1562 120,1565 114,1569 109,1575 104,1581 100,1589 97,1597 94,1606 93,1616 93,1627 93,1649 98,1667 108,1679 118,1692 131,1698 147,1698 156,1698 164,1696 171,1692 179,1688 185,1683 191,1677 L 217,1708 C 199,1730 175,1740 145,1740 L 145,1740 Z"/>
        <path fill="rgb(0,0,0)" stroke="none" d="M 251,1736 L 251,1518 391,1518 391,1560 302,1560 302,1604 378,1604 378,1645 302,1645 302,1695 394,1695 394,1736 251,1736 251,1736 Z"/>
        <path fill="rgb(0,0,0)" stroke="none" d="M 439,1736 L 439,1518 491,1518 549,1627 571,1675 572,1675 C 571,1663 570,1650 568,1636 567,1622 566,1608 566,1595 L 566,1518 614,1518 614,1736 562,1736 504,1628 482,1580 481,1580 C 482,1592 483,1605 484,1619 486,1633 487,1646 487,1659 L 487,1736 439,1736 439,1736 Z"/>
        <path fill="rgb(0,0,0)" stroke="none" d="M 735,1740 C 720,1740 706,1738 691,1733 677,1727 664,1719 652,1709 L 681,1675 C 689,1682 698,1687 707,1692 717,1696 727,1698 736,1698 747,1698 754,1696 759,1692 765,1688 767,1683 767,1677 767,1673 767,1671 765,1668 764,1666 761,1664 758,1662 756,1660 752,1658 748,1656 744,1655 740,1653 735,1651 L 706,1639 C 700,1636 695,1634 689,1630 684,1626 679,1622 675,1618 671,1613 667,1607 665,1601 662,1594 661,1587 661,1579 661,1570 663,1562 667,1554 671,1546 676,1539 683,1533 691,1527 699,1523 708,1519 718,1516 729,1514 741,1514 754,1514 766,1517 779,1522 792,1526 803,1534 813,1543 L 787,1574 C 780,1568 772,1564 765,1561 758,1558 750,1557 741,1557 732,1557 725,1558 720,1562 715,1565 712,1570 712,1576 712,1580 713,1583 715,1585 716,1587 719,1589 722,1591 725,1593 729,1595 733,1597 737,1598 741,1600 746,1602 L 775,1614 C 789,1619 799,1626 807,1636 815,1645 819,1657 819,1673 819,1682 817,1691 813,1699 810,1707 804,1714 797,1720 790,1726 781,1731 770,1735 760,1739 748,1740 735,1740 L 735,1740 Z"/>
        <path fill="rgb(0,0,0)" stroke="none" d="M 857,1736 L 857,1518 907,1518 907,1736 857,1736 857,1736 Z"/>
        <path fill="rgb(0,0,0)" stroke="none" d="M 960,1736 L 960,1518 1037,1518 C 1049,1518 1061,1519 1071,1522 1082,1524 1091,1528 1099,1534 1107,1539 1114,1546 1118,1555 1123,1564 1125,1575 1125,1588 1125,1601 1123,1612 1118,1622 1114,1631 1107,1639 1099,1645 1091,1651 1082,1655 1072,1658 1061,1661 1050,1662 1038,1662 L 1010,1662 1010,1736 960,1736 960,1736 Z M 1010,1623 L 1035,1623 C 1062,1623 1076,1612 1076,1588 1076,1577 1072,1569 1065,1564 1058,1560 1047,1557 1034,1557 L 1010,1557 1010,1623 1010,1623 Z"/>
        <path fill="rgb(0,0,0)" stroke="none" d="M 1199,1626 L 1194,1646 1241,1646 1236,1626 C 1233,1615 1230,1603 1227,1591 1224,1579 1221,1567 1218,1556 L 1217,1556 C 1214,1567 1211,1579 1208,1591 1205,1604 1203,1615 1199,1626 L 1199,1626 Z M 1118,1736 L 1188,1518 1249,1518 1319,1736 1265,1736 1252,1684 1184,1684 1170,1736 1118,1736 1118,1736 Z"/>
        <path fill="rgb(0,0,0)" stroke="none" d="M 1343,1736 L 1343,1518 1398,1518 1434,1615 C 1437,1622 1439,1628 1441,1635 1443,1642 1445,1649 1447,1655 L 1449,1655 C 1451,1649 1453,1642 1455,1635 1457,1628 1459,1622 1461,1615 L 1497,1518 1551,1518 1551,1736 1506,1736 1506,1656 C 1506,1651 1506,1645 1506,1639 1507,1632 1507,1626 1508,1619 1509,1613 1509,1606 1510,1600 1511,1593 1511,1587 1512,1582 L 1511,1582 1493,1634 1461,1717 1433,1717 1401,1634 1383,1582 1382,1582 C 1383,1587 1383,1593 1384,1600 1385,1606 1385,1613 1386,1619 1387,1626 1387,1632 1388,1639 1388,1645 1388,1651 1388,1656 L 1388,1736 1343,1736 1343,1736 Z"/>
        <path fill="rgb(0,0,0)" stroke="none" d="M 96,1893 C 91,1893 87,1892 83,1890 79,1888 75,1886 72,1883 70,1879 67,1875 66,1871 64,1866 63,1861 63,1855 63,1849 64,1844 66,1839 67,1834 70,1830 73,1827 76,1824 79,1821 83,1819 87,1818 92,1817 96,1817 101,1817 105,1818 108,1820 112,1821 115,1823 117,1826 L 112,1832 C 110,1830 108,1828 105,1827 103,1826 100,1825 97,1825 93,1825 90,1826 87,1827 84,1828 81,1830 79,1833 77,1835 76,1839 75,1842 74,1846 73,1850 73,1854 73,1859 74,1863 75,1867 76,1871 77,1874 79,1876 81,1879 84,1881 86,1882 89,1884 93,1884 96,1884 100,1884 103,1884 106,1882 109,1881 111,1879 114,1876 L 119,1882 C 116,1885 112,1888 109,1890 105,1892 101,1893 96,1893 L 96,1893 Z"/>
        <path fill="rgb(0,0,0)" stroke="none" d="M 154,1893 C 151,1893 147,1892 144,1891 141,1889 138,1888 135,1885 133,1883 131,1880 130,1876 128,1873 128,1869 128,1864 128,1860 128,1856 130,1852 131,1849 133,1846 135,1843 138,1841 140,1839 143,1838 146,1836 149,1836 153,1836 156,1836 159,1836 162,1838 165,1839 167,1840 169,1843 171,1845 172,1848 173,1851 174,1854 175,1857 175,1861 175,1862 175,1863 175,1864 175,1865 175,1866 174,1866 L 137,1866 C 137,1872 139,1877 142,1880 146,1884 150,1885 155,1885 158,1885 161,1885 163,1884 165,1883 167,1882 169,1881 L 173,1887 C 170,1889 167,1890 164,1891 162,1892 158,1893 154,1893 L 154,1893 Z M 137,1860 L 167,1860 C 167,1854 165,1850 163,1847 161,1844 157,1843 153,1843 151,1843 149,1843 147,1844 145,1845 144,1846 142,1847 141,1849 140,1851 139,1853 138,1855 137,1857 137,1860 L 137,1860 Z"/>
        <path fill="rgb(0,0,0)" stroke="none" d="M 188,1891 L 188,1837 196,1837 197,1845 197,1845 C 200,1842 203,1840 206,1838 209,1837 212,1836 216,1836 222,1836 226,1838 229,1841 232,1845 233,1850 233,1857 L 233,1891 224,1891 224,1858 C 224,1853 223,1849 221,1847 219,1845 217,1844 213,1844 210,1844 208,1844 205,1846 203,1847 201,1849 198,1852 L 198,1891 188,1891 188,1891 Z"/>
        <path fill="rgb(0,0,0)" stroke="none" d="M 268,1893 C 265,1893 263,1892 261,1891 259,1890 257,1889 256,1888 255,1886 254,1884 253,1882 253,1880 253,1877 253,1875 L 253,1845 244,1845 244,1838 253,1837 254,1822 262,1822 262,1837 277,1837 277,1845 262,1845 262,1875 C 262,1878 263,1881 264,1882 265,1884 267,1885 271,1885 272,1885 273,1885 274,1885 275,1884 276,1884 277,1884 L 279,1891 C 277,1891 275,1892 274,1892 272,1892 270,1893 268,1893 L 268,1893 Z"/>
        <path fill="rgb(0,0,0)" stroke="none" d="M 289,1891 L 289,1837 297,1837 298,1847 298,1847 C 300,1843 303,1841 305,1839 308,1837 311,1836 314,1836 316,1836 318,1836 320,1837 L 318,1845 C 317,1845 317,1844 316,1844 315,1844 314,1844 313,1844 311,1844 308,1845 305,1847 303,1849 301,1852 299,1856 L 299,1891 289,1891 289,1891 Z"/>
        <path fill="rgb(0,0,0)" stroke="none" d="M 350,1893 C 346,1893 343,1892 340,1891 337,1889 334,1888 332,1885 329,1883 327,1880 326,1876 325,1873 324,1869 324,1864 324,1860 325,1856 326,1852 327,1849 329,1846 332,1843 334,1841 337,1839 340,1838 343,1836 346,1836 350,1836 353,1836 356,1836 359,1838 362,1839 365,1841 367,1843 370,1846 372,1849 373,1852 374,1856 375,1860 375,1864 375,1869 374,1873 373,1876 372,1880 370,1883 367,1885 365,1888 362,1889 359,1891 356,1892 353,1893 350,1893 L 350,1893 Z M 350,1885 C 352,1885 354,1885 356,1884 358,1883 360,1881 361,1879 362,1877 364,1875 364,1873 365,1870 366,1867 366,1864 366,1861 365,1858 364,1856 364,1853 362,1851 361,1849 360,1847 358,1846 356,1845 354,1844 352,1843 350,1843 347,1843 345,1844 343,1845 341,1846 339,1847 338,1849 337,1851 335,1853 335,1856 334,1858 334,1861 334,1864 334,1867 334,1870 335,1873 335,1875 337,1877 338,1879 339,1881 341,1883 343,1884 345,1885 347,1885 350,1885 L 350,1885 Z"/>
        <path fill="rgb(0,0,0)" stroke="none" d="M 443,1893 C 438,1893 434,1892 429,1890 425,1888 422,1886 419,1883 416,1879 413,1875 412,1871 410,1866 409,1861 409,1855 409,1849 410,1844 412,1839 414,1834 416,1830 419,1827 422,1824 426,1821 430,1819 434,1818 439,1817 444,1817 446,1817 449,1817 451,1818 453,1818 455,1819 457,1820 458,1820 460,1821 461,1823 463,1824 464,1825 465,1826 L 460,1832 C 458,1830 456,1828 453,1827 451,1826 448,1825 444,1825 440,1825 437,1826 434,1827 431,1828 428,1830 426,1833 424,1835 422,1839 421,1842 420,1846 419,1850 419,1854 419,1859 420,1863 421,1867 422,1871 423,1874 425,1876 428,1879 430,1881 433,1882 436,1884 440,1884 444,1884 447,1884 449,1884 451,1883 454,1883 456,1881 457,1880 L 457,1861 442,1861 442,1853 466,1853 466,1884 C 464,1887 460,1889 457,1890 453,1892 448,1893 443,1893 L 443,1893 Z"/>
        <path fill="rgb(0,0,0)" stroke="none" d="M 506,1893 C 502,1893 498,1892 495,1891 492,1889 489,1888 487,1885 484,1883 482,1880 481,1876 480,1873 479,1869 479,1864 479,1860 480,1856 481,1852 483,1849 484,1846 487,1843 489,1841 492,1839 495,1838 498,1836 501,1836 504,1836 507,1836 511,1836 513,1838 516,1839 518,1840 520,1843 522,1845 524,1848 525,1851 526,1854 526,1857 526,1861 526,1862 526,1863 526,1864 526,1865 526,1866 526,1866 L 488,1866 C 489,1872 490,1877 494,1880 497,1884 501,1885 507,1885 509,1885 512,1885 514,1884 516,1883 519,1882 521,1881 L 524,1887 C 521,1889 519,1890 516,1891 513,1892 509,1893 506,1893 L 506,1893 Z M 488,1860 L 518,1860 C 518,1854 517,1850 514,1847 512,1844 508,1843 504,1843 502,1843 500,1843 498,1844 497,1845 495,1846 494,1847 492,1849 491,1851 490,1853 489,1855 488,1857 488,1860 L 488,1860 Z"/>
        <path fill="rgb(0,0,0)" stroke="none" d="M 554,1893 C 550,1893 547,1892 543,1891 539,1889 536,1887 534,1885 L 538,1879 C 541,1881 543,1883 546,1884 548,1885 551,1885 555,1885 558,1885 561,1885 563,1883 565,1881 566,1879 566,1877 566,1876 565,1874 564,1873 564,1872 563,1871 561,1871 560,1870 559,1869 557,1869 556,1868 554,1867 553,1867 551,1866 549,1865 547,1865 545,1864 543,1863 542,1861 540,1860 539,1859 538,1857 537,1855 536,1853 536,1851 536,1849 537,1847 538,1845 539,1843 540,1842 541,1840 543,1839 545,1838 547,1837 550,1836 552,1836 555,1836 559,1836 562,1836 565,1838 568,1839 571,1840 573,1842 L 568,1848 C 566,1846 564,1845 562,1844 560,1843 558,1843 556,1843 552,1843 549,1844 548,1845 546,1847 545,1849 545,1851 545,1852 546,1853 546,1854 547,1855 548,1856 549,1856 550,1857 552,1858 553,1858 555,1859 556,1859 558,1860 560,1861 562,1862 564,1862 566,1863 568,1864 569,1866 571,1867 572,1868 573,1870 574,1872 575,1874 575,1876 575,1879 574,1881 573,1883 572,1885 571,1886 569,1888 568,1889 566,1890 563,1891 560,1892 558,1893 554,1893 L 554,1893 Z"/>
        <path fill="rgb(0,0,0)" stroke="none" d="M 603,1893 C 600,1893 597,1892 595,1891 593,1890 592,1889 590,1888 589,1886 588,1884 588,1882 587,1880 587,1877 587,1875 L 587,1845 579,1845 579,1838 587,1837 589,1822 596,1822 596,1837 611,1837 611,1845 596,1845 596,1875 C 596,1878 597,1881 598,1882 600,1884 602,1885 605,1885 606,1885 607,1885 608,1885 609,1884 610,1884 611,1884 L 613,1891 C 612,1891 610,1892 608,1892 606,1892 605,1893 603,1893 L 603,1893 Z"/>
        <path fill="rgb(0,0,0)" stroke="none" d="M 644,1893 C 641,1893 637,1892 634,1891 631,1889 628,1888 626,1885 624,1883 622,1880 620,1876 619,1873 618,1869 618,1864 618,1860 619,1856 620,1852 622,1849 624,1846 626,1843 628,1841 631,1839 634,1838 637,1836 641,1836 644,1836 647,1836 651,1836 654,1838 657,1839 660,1841 662,1843 664,1846 666,1849 667,1852 669,1856 670,1860 670,1864 670,1869 669,1873 667,1876 666,1880 664,1883 662,1885 660,1888 657,1889 654,1891 651,1892 647,1893 644,1893 L 644,1893 Z M 644,1885 C 646,1885 648,1885 650,1884 652,1883 654,1881 655,1879 657,1877 658,1875 659,1873 660,1870 660,1867 660,1864 660,1861 660,1858 659,1856 658,1853 657,1851 655,1849 654,1847 652,1846 650,1845 648,1844 646,1843 644,1843 642,1843 639,1844 637,1845 635,1846 634,1847 632,1849 631,1851 630,1853 629,1856 628,1858 628,1861 628,1864 628,1867 628,1870 629,1873 630,1875 631,1877 632,1879 634,1881 635,1883 637,1884 639,1885 642,1885 644,1885 L 644,1885 Z"/>
        <path fill="rgb(0,0,0)" stroke="none" d="M 684,1891 L 684,1837 692,1837 693,1847 693,1847 C 695,1843 697,1841 700,1839 703,1837 706,1836 709,1836 711,1836 713,1836 715,1837 L 713,1845 C 712,1845 711,1844 711,1844 710,1844 709,1844 708,1844 705,1844 703,1845 700,1847 698,1849 696,1852 694,1856 L 694,1891 684,1891 684,1891 Z"/>
        <path fill="rgb(0,0,0)" stroke="none" d="M 769,1893 C 765,1893 762,1892 759,1891 755,1889 753,1888 750,1885 748,1883 746,1880 745,1876 743,1873 743,1869 743,1864 743,1860 743,1856 745,1852 746,1849 748,1846 750,1843 753,1841 755,1839 758,1838 761,1836 764,1836 767,1836 771,1836 774,1836 777,1838 780,1839 782,1840 784,1843 786,1845 787,1848 788,1851 789,1854 790,1857 790,1861 790,1862 790,1863 789,1864 789,1865 789,1866 789,1866 L 752,1866 C 752,1872 754,1877 757,1880 761,1884 765,1885 770,1885 773,1885 775,1885 778,1884 780,1883 782,1882 784,1881 L 787,1887 C 785,1889 782,1890 779,1891 776,1892 773,1893 769,1893 L 769,1893 Z M 752,1860 L 781,1860 C 781,1854 780,1850 778,1847 775,1844 772,1843 768,1843 766,1843 764,1843 762,1844 760,1845 759,1846 757,1847 756,1849 755,1851 754,1853 753,1855 752,1857 752,1860 L 752,1860 Z"/>
        <path fill="rgb(0,0,0)" stroke="none" d="M 855,1893 C 850,1893 846,1892 842,1890 838,1888 834,1886 832,1882 829,1879 827,1875 825,1870 824,1866 823,1860 823,1854 823,1848 824,1843 825,1839 827,1834 829,1830 832,1827 834,1824 838,1821 842,1819 846,1818 850,1817 855,1817 859,1817 864,1818 868,1819 872,1821 875,1824 878,1827 881,1830 883,1834 884,1839 886,1843 887,1849 887,1854 887,1860 886,1866 884,1870 883,1875 881,1879 878,1882 875,1886 872,1888 868,1890 864,1892 859,1893 855,1893 L 855,1893 Z M 855,1884 C 858,1884 861,1884 864,1882 866,1881 869,1879 871,1876 873,1874 874,1871 875,1867 876,1863 877,1859 877,1854 877,1850 876,1846 875,1842 874,1838 873,1835 871,1833 869,1830 866,1828 864,1827 861,1826 858,1825 855,1825 851,1825 848,1826 846,1827 843,1828 841,1830 839,1833 837,1835 835,1838 834,1842 833,1846 833,1850 833,1854 833,1859 833,1863 834,1867 835,1871 837,1874 839,1876 841,1879 843,1881 846,1882 848,1884 851,1884 855,1884 L 855,1884 Z"/>
        <path fill="rgb(0,0,0)" stroke="none" d="M 902,1914 L 902,1837 910,1837 911,1843 911,1843 C 913,1841 916,1839 919,1838 922,1836 925,1836 929,1836 932,1836 935,1836 938,1838 941,1839 943,1841 945,1843 947,1846 948,1849 949,1852 950,1855 951,1859 951,1863 951,1868 950,1872 949,1876 947,1879 946,1882 943,1885 941,1887 939,1889 936,1891 933,1892 930,1893 927,1893 924,1893 921,1892 919,1891 916,1890 914,1888 911,1886 L 911,1896 911,1914 902,1914 902,1914 Z M 925,1885 C 927,1885 929,1884 931,1883 933,1882 935,1881 936,1879 938,1877 939,1875 940,1872 940,1870 941,1867 941,1863 941,1860 941,1858 940,1855 939,1853 939,1851 937,1849 936,1847 935,1846 933,1845 931,1844 929,1843 926,1843 924,1843 921,1844 919,1845 917,1847 914,1848 911,1851 L 911,1879 C 914,1881 916,1883 919,1884 921,1885 923,1885 925,1885 L 925,1885 Z"/>
        <path fill="rgb(0,0,0)" stroke="none" d="M 988,1893 C 984,1893 981,1892 977,1891 974,1889 971,1888 969,1885 966,1883 965,1880 963,1876 962,1873 961,1869 961,1864 961,1860 962,1856 963,1852 965,1849 967,1846 969,1843 971,1841 974,1839 977,1838 980,1836 983,1836 986,1836 990,1836 993,1836 995,1838 998,1839 1001,1840 1002,1843 1004,1845 1006,1848 1007,1851 1008,1854 1008,1857 1008,1861 1008,1862 1008,1863 1008,1864 1008,1865 1008,1866 1008,1866 L 970,1866 C 971,1872 973,1877 976,1880 979,1884 984,1885 989,1885 992,1885 994,1885 996,1884 999,1883 1001,1882 1003,1881 L 1006,1887 C 1004,1889 1001,1890 998,1891 995,1892 992,1893 988,1893 L 988,1893 Z M 970,1860 L 1000,1860 C 1000,1854 999,1850 996,1847 994,1844 991,1843 986,1843 984,1843 982,1843 981,1844 979,1845 977,1846 976,1847 974,1849 973,1851 972,1853 971,1855 971,1857 970,1860 L 970,1860 Z"/>
        <path fill="rgb(0,0,0)" stroke="none" d="M 1022,1891 L 1022,1837 1030,1837 1031,1847 1031,1847 C 1033,1843 1035,1841 1038,1839 1040,1837 1043,1836 1047,1836 1049,1836 1051,1836 1053,1837 L 1051,1845 C 1050,1845 1049,1844 1048,1844 1047,1844 1046,1844 1045,1844 1043,1844 1041,1845 1038,1847 1035,1849 1033,1852 1031,1856 L 1031,1891 1022,1891 1022,1891 Z"/>
        <path fill="rgb(0,0,0)" stroke="none" d="M 1072,1893 C 1067,1893 1063,1891 1060,1889 1057,1886 1055,1882 1055,1877 1055,1871 1058,1867 1063,1864 1069,1860 1077,1858 1089,1857 1089,1855 1089,1854 1089,1852 1088,1850 1088,1849 1087,1848 1086,1846 1085,1845 1084,1845 1082,1844 1080,1843 1078,1843 1075,1843 1072,1844 1069,1845 1066,1846 1064,1848 1061,1849 L 1058,1843 C 1060,1841 1063,1840 1067,1838 1071,1837 1075,1836 1080,1836 1086,1836 1091,1838 1094,1842 1097,1846 1099,1851 1099,1858 L 1099,1891 1091,1891 1090,1885 1090,1885 C 1087,1887 1084,1889 1081,1890 1078,1892 1075,1893 1072,1893 L 1072,1893 Z M 1074,1885 C 1077,1885 1079,1885 1082,1883 1084,1882 1087,1880 1089,1878 L 1089,1863 C 1085,1864 1081,1864 1078,1865 1074,1866 1072,1867 1070,1868 1068,1869 1067,1870 1066,1872 1065,1873 1064,1875 1064,1877 1064,1880 1065,1882 1067,1883 1069,1885 1072,1885 1074,1885 L 1074,1885 Z"/>
        <path fill="rgb(0,0,0)" stroke="none" d="M 1138,1893 C 1135,1893 1131,1892 1128,1891 1125,1889 1122,1888 1120,1885 1117,1883 1115,1880 1114,1876 1113,1873 1112,1869 1112,1864 1112,1860 1113,1856 1114,1852 1116,1849 1118,1846 1120,1843 1123,1841 1125,1839 1129,1838 1132,1836 1135,1836 1139,1836 1143,1836 1146,1836 1148,1838 1151,1839 1153,1840 1155,1842 L 1150,1848 C 1149,1847 1147,1846 1145,1845 1143,1844 1141,1843 1139,1843 1137,1843 1134,1844 1132,1845 1130,1846 1128,1847 1127,1849 1125,1851 1124,1853 1123,1856 1122,1858 1122,1861 1122,1864 1122,1867 1122,1870 1123,1873 1124,1875 1125,1877 1127,1879 1128,1881 1130,1883 1132,1884 1134,1885 1136,1885 1139,1885 1142,1885 1144,1885 1146,1883 1148,1882 1150,1881 1152,1880 L 1156,1886 C 1154,1888 1151,1890 1148,1891 1145,1892 1142,1893 1138,1893 L 1138,1893 Z"/>
        <path fill="rgb(0,0,0)" stroke="none" d="M 1168,1891 L 1168,1837 1178,1837 1178,1891 1168,1891 1168,1891 Z M 1173,1826 C 1171,1826 1170,1825 1168,1824 1167,1823 1167,1822 1167,1820 1167,1818 1167,1817 1168,1816 1170,1815 1171,1814 1173,1814 1175,1814 1176,1815 1178,1816 1179,1817 1180,1818 1180,1820 1180,1822 1179,1823 1178,1824 1176,1825 1175,1826 1173,1826 L 1173,1826 Z"/>
        <path fill="rgb(0,0,0)" stroke="none" d="M 1218,1893 C 1215,1893 1211,1892 1208,1891 1205,1889 1202,1888 1200,1885 1198,1883 1196,1880 1194,1876 1193,1873 1192,1869 1192,1864 1192,1860 1193,1856 1194,1852 1196,1849 1198,1846 1200,1843 1202,1841 1205,1839 1208,1838 1211,1836 1215,1836 1218,1836 1221,1836 1225,1836 1228,1838 1231,1839 1234,1841 1236,1843 1238,1846 1240,1849 1242,1852 1243,1856 1244,1860 1244,1864 1244,1869 1243,1873 1242,1876 1240,1880 1238,1883 1236,1885 1234,1888 1231,1889 1228,1891 1225,1892 1221,1893 1218,1893 L 1218,1893 Z M 1218,1885 C 1220,1885 1223,1885 1225,1884 1226,1883 1228,1881 1230,1879 1231,1877 1232,1875 1233,1873 1234,1870 1234,1867 1234,1864 1234,1861 1234,1858 1233,1856 1232,1853 1231,1851 1230,1849 1228,1847 1226,1846 1225,1845 1223,1844 1220,1843 1218,1843 1216,1843 1213,1844 1211,1845 1210,1846 1208,1847 1206,1849 1205,1851 1204,1853 1203,1856 1202,1858 1202,1861 1202,1864 1202,1867 1202,1870 1203,1873 1204,1875 1205,1877 1206,1879 1208,1881 1210,1883 1211,1884 1213,1885 1216,1885 1218,1885 L 1218,1885 Z"/>
        <path fill="rgb(0,0,0)" stroke="none" d="M 1258,1891 L 1258,1837 1266,1837 1267,1845 1267,1845 C 1270,1842 1273,1840 1276,1838 1278,1837 1282,1836 1286,1836 1292,1836 1296,1838 1299,1841 1301,1845 1303,1850 1303,1857 L 1303,1891 1293,1891 1293,1858 C 1293,1853 1293,1849 1291,1847 1289,1845 1286,1844 1283,1844 1280,1844 1277,1844 1275,1846 1273,1847 1270,1849 1268,1852 L 1268,1891 1258,1891 1258,1891 Z"/>
        <path fill="rgb(0,0,0)" stroke="none" d="M 1334,1893 C 1329,1893 1325,1891 1322,1889 1319,1886 1317,1882 1317,1877 1317,1871 1320,1867 1325,1864 1331,1860 1339,1858 1351,1857 1351,1855 1351,1854 1351,1852 1350,1850 1350,1849 1349,1848 1348,1846 1347,1845 1345,1845 1344,1844 1342,1843 1340,1843 1337,1843 1334,1844 1331,1845 1328,1846 1326,1848 1323,1849 L 1320,1843 C 1322,1841 1325,1840 1329,1838 1333,1837 1337,1836 1342,1836 1348,1836 1353,1838 1356,1842 1359,1846 1361,1851 1361,1858 L 1361,1891 1353,1891 1352,1885 1352,1885 C 1349,1887 1346,1889 1343,1890 1340,1892 1337,1893 1334,1893 L 1334,1893 Z M 1336,1885 C 1339,1885 1341,1885 1344,1883 1346,1882 1349,1880 1351,1878 L 1351,1863 C 1347,1864 1343,1864 1340,1865 1336,1866 1334,1867 1332,1868 1330,1869 1329,1870 1328,1872 1327,1873 1326,1875 1326,1877 1326,1880 1327,1882 1329,1883 1331,1885 1334,1885 1336,1885 L 1336,1885 Z"/>
        <path fill="rgb(0,0,0)" stroke="none" d="M 1388,1893 C 1385,1893 1382,1892 1381,1890 1379,1887 1378,1884 1378,1880 L 1378,1812 1388,1812 1388,1881 C 1388,1883 1388,1884 1388,1884 1389,1885 1390,1885 1390,1885 1391,1885 1391,1885 1391,1885 1391,1885 1392,1885 1392,1885 L 1394,1892 C 1393,1892 1392,1892 1391,1892 1391,1893 1389,1893 1388,1893 L 1388,1893 Z"/>
        <path fill="rgb(0,0,0)" stroke="none" d="M 1449,1893 C 1442,1893 1437,1890 1432,1885 1428,1880 1426,1873 1426,1864 1426,1860 1427,1856 1428,1852 1430,1849 1431,1846 1434,1843 1436,1841 1438,1839 1441,1838 1444,1836 1447,1836 1450,1836 1453,1836 1456,1836 1459,1837 1461,1839 1463,1840 1466,1842 L 1465,1833 1465,1812 1475,1812 1475,1891 1467,1891 1466,1885 1466,1885 C 1464,1887 1461,1889 1458,1890 1455,1892 1452,1893 1449,1893 L 1449,1893 Z M 1451,1885 C 1454,1885 1456,1884 1459,1883 1461,1882 1463,1880 1465,1877 L 1465,1849 C 1463,1847 1461,1846 1459,1845 1456,1844 1454,1843 1452,1843 1450,1843 1448,1844 1446,1845 1444,1846 1442,1847 1441,1849 1439,1851 1438,1853 1437,1856 1436,1858 1436,1861 1436,1864 1436,1871 1437,1876 1440,1879 1443,1883 1446,1885 1451,1885 L 1451,1885 Z"/>
        <path fill="rgb(0,0,0)" stroke="none" d="M 1515,1893 C 1512,1893 1508,1892 1505,1891 1502,1889 1500,1888 1497,1885 1495,1883 1493,1880 1491,1876 1490,1873 1489,1869 1489,1864 1489,1860 1490,1856 1491,1852 1493,1849 1495,1846 1497,1843 1500,1841 1502,1839 1505,1838 1508,1836 1512,1836 1515,1836 1519,1836 1522,1836 1525,1838 1528,1839 1531,1841 1533,1843 1535,1846 1537,1849 1539,1852 1540,1856 1541,1860 1541,1864 1541,1869 1540,1873 1539,1876 1537,1880 1535,1883 1533,1885 1531,1888 1528,1889 1525,1891 1522,1892 1519,1893 1515,1893 L 1515,1893 Z M 1515,1885 C 1517,1885 1520,1885 1522,1884 1524,1883 1525,1881 1527,1879 1528,1877 1529,1875 1530,1873 1531,1870 1531,1867 1531,1864 1531,1861 1531,1858 1530,1856 1529,1853 1528,1851 1527,1849 1525,1847 1524,1846 1522,1845 1520,1844 1517,1843 1515,1843 1513,1843 1511,1844 1509,1845 1507,1846 1505,1847 1503,1849 1502,1851 1501,1853 1500,1856 1500,1858 1499,1861 1499,1864 1499,1867 1500,1870 1500,1873 1501,1875 1502,1877 1503,1879 1505,1881 1507,1883 1509,1884 1511,1885 1513,1885 1515,1885 L 1515,1885 Z"/>
        <path fill="rgb(0,0,0)" stroke="none" d="M 27,2035 C 22,2035 17,2034 12,2032 8,2030 4,2028 1,2024 L 6,2018 C 9,2021 12,2023 16,2025 19,2026 23,2027 27,2027 32,2027 36,2026 39,2024 41,2022 43,2019 43,2015 43,2013 42,2012 42,2010 41,2009 40,2008 39,2007 38,2006 37,2005 35,2004 34,2004 32,2003 30,2002 L 20,1998 C 18,1997 16,1996 14,1995 12,1994 11,1993 9,1991 8,1990 7,1988 6,1986 5,1984 4,1981 4,1979 4,1976 5,1973 6,1971 7,1969 9,1967 11,1965 13,1963 16,1962 18,1961 21,1960 24,1959 28,1959 32,1959 37,1960 40,1962 44,1964 47,1966 50,1968 L 45,1974 C 43,1972 40,1971 37,1969 35,1968 31,1967 28,1967 24,1967 20,1968 18,1970 15,1972 14,1975 14,1978 14,1980 14,1981 15,1983 16,1984 17,1985 18,1986 19,1987 21,1988 22,1988 23,1989 25,1990 26,1990 L 37,1995 C 39,1996 41,1997 43,1998 45,1999 47,2000 48,2002 49,2003 50,2005 51,2007 52,2009 52,2012 52,2014 52,2017 52,2020 51,2022 49,2025 48,2027 46,2029 43,2031 41,2032 38,2034 34,2035 31,2035 27,2035 L 27,2035 Z"/>
        <path fill="rgb(0,0,0)" stroke="none" d="M 66,2034 L 66,1980 76,1980 76,2034 66,2034 66,2034 Z M 71,1968 C 69,1968 68,1968 66,1967 65,1966 65,1964 65,1963 65,1961 65,1959 66,1958 68,1957 69,1957 71,1957 73,1957 74,1957 76,1958 77,1959 78,1961 78,1963 78,1964 77,1966 76,1967 74,1968 73,1968 71,1968 L 71,1968 Z"/>
        <path fill="rgb(0,0,0)" stroke="none" d="M 109,2035 C 105,2035 101,2034 98,2033 94,2032 91,2030 88,2028 L 93,2022 C 95,2023 98,2025 100,2026 103,2027 106,2028 109,2028 113,2028 116,2027 117,2026 119,2024 120,2022 120,2020 120,2018 120,2017 119,2016 118,2015 117,2014 116,2013 115,2012 114,2012 112,2011 111,2010 109,2010 108,2009 106,2009 104,2008 102,2007 100,2006 98,2005 96,2004 95,2003 93,2001 92,2000 91,1998 91,1996 91,1994 91,1991 91,1989 92,1988 93,1986 94,1984 96,1983 98,1981 100,1980 102,1979 104,1979 107,1978 110,1978 114,1978 117,1979 120,1980 123,1981 125,1983 127,1984 L 123,1990 C 121,1989 119,1988 117,1987 115,1986 113,1985 110,1985 107,1985 104,1986 102,1988 101,1989 100,1991 100,1993 100,1994 100,1996 101,1997 102,1997 103,1998 104,1999 105,2000 106,2000 108,2001 109,2001 111,2002 112,2003 114,2003 116,2004 118,2005 120,2006 122,2007 124,2008 125,2009 127,2011 128,2013 129,2014 129,2016 129,2019 129,2021 129,2023 128,2025 127,2027 126,2029 124,2030 122,2032 120,2033 118,2034 115,2035 112,2035 109,2035 L 109,2035 Z"/>
        <path fill="rgb(0,0,0)" stroke="none" d="M 157,2035 C 154,2035 152,2035 150,2034 148,2033 146,2032 145,2030 144,2029 143,2027 142,2024 142,2022 142,2020 142,2017 L 142,1987 133,1987 133,1980 142,1980 143,1964 151,1964 151,1980 166,1980 166,1987 151,1987 151,2017 C 151,2021 152,2023 153,2025 154,2027 156,2028 160,2028 161,2028 162,2028 163,2027 164,2027 165,2027 166,2026 L 168,2033 C 166,2034 165,2034 163,2034 161,2035 159,2035 157,2035 L 157,2035 Z"/>
        <path fill="rgb(0,0,0)" stroke="none" d="M 199,2035 C 196,2035 192,2035 189,2033 186,2032 183,2030 181,2028 178,2025 176,2022 175,2019 174,2015 173,2011 173,2007 173,2002 174,1998 175,1995 176,1991 178,1988 181,1986 183,1983 186,1982 189,1980 191,1979 195,1978 198,1978 201,1978 204,1979 207,1980 210,1981 212,1983 214,1985 216,1987 217,1990 218,1993 219,1996 220,2000 220,2004 220,2005 220,2006 220,2007 220,2007 220,2008 220,2009 L 182,2009 C 183,2015 184,2019 188,2023 191,2026 195,2028 201,2028 203,2028 206,2027 208,2027 210,2026 212,2025 214,2024 L 218,2030 C 215,2031 213,2032 210,2033 207,2035 203,2035 199,2035 L 199,2035 Z M 182,2002 L 212,2002 C 212,1997 210,1993 208,1990 206,1987 202,1986 198,1986 196,1986 194,1986 192,1987 191,1987 189,1988 187,1990 186,1991 185,1993 184,1995 183,1997 182,2000 182,2002 L 182,2002 Z"/>
        <path fill="rgb(0,0,0)" stroke="none" d="M 234,2034 L 234,1980 241,1980 242,1987 243,1987 C 245,1985 248,1983 250,1981 253,1979 256,1978 260,1978 264,1978 267,1979 270,1981 272,1983 274,1985 275,1989 278,1986 281,1983 284,1981 287,1979 290,1978 293,1978 299,1978 303,1980 306,1984 309,1987 310,1992 310,1999 L 310,2034 301,2034 301,2001 C 301,1996 300,1992 298,1990 297,1987 294,1986 291,1986 286,1986 282,1989 277,1995 L 277,2034 267,2034 267,2001 C 267,1996 266,1992 265,1990 263,1987 260,1986 257,1986 253,1986 248,1989 243,1995 L 243,2034 234,2034 234,2034 Z"/>
        <path fill="rgb(0,0,0)" stroke="none" d="M 341,2035 C 336,2035 333,2034 329,2031 326,2028 325,2025 325,2020 325,2014 328,2009 333,2006 338,2003 347,2001 359,1999 359,1998 359,1996 358,1994 358,1993 357,1991 357,1990 356,1989 355,1988 353,1987 352,1986 350,1986 347,1986 344,1986 341,1986 338,1988 336,1989 333,1990 331,1992 L 327,1985 C 330,1984 333,1982 337,1981 340,1979 345,1978 349,1978 356,1978 361,1980 364,1984 367,1988 368,1994 368,2001 L 368,2034 361,2034 360,2027 359,2027 C 357,2029 354,2031 351,2033 348,2034 345,2035 341,2035 L 341,2035 Z M 344,2028 C 346,2028 349,2027 351,2026 354,2025 356,2023 359,2021 L 359,2005 C 354,2006 350,2007 347,2008 344,2008 341,2009 339,2010 338,2012 336,2013 335,2014 334,2016 334,2017 334,2019 334,2022 335,2024 337,2026 339,2027 341,2028 344,2028 L 344,2028 Z"/>
        <path fill="rgb(0,0,0)" stroke="none" d="M 428,2035 C 421,2035 415,2033 411,2028 407,2023 405,2016 405,2007 405,2002 405,1998 407,1995 408,1991 410,1988 412,1986 414,1984 417,1982 420,1980 423,1979 426,1978 429,1978 432,1978 435,1979 437,1980 439,1981 442,1983 444,1985 L 444,1975 444,1954 453,1954 453,2034 446,2034 445,2027 444,2027 C 442,2030 440,2031 437,2033 434,2034 431,2035 428,2035 L 428,2035 Z M 430,2027 C 432,2027 435,2027 437,2026 439,2024 442,2023 444,2020 L 444,1992 C 441,1990 439,1988 437,1987 435,1986 433,1986 430,1986 428,1986 426,1986 424,1988 422,1988 420,1990 419,1992 418,1994 416,1996 416,1998 415,2001 414,2004 414,2007 414,2013 416,2018 418,2022 421,2026 425,2027 430,2027 L 430,2027 Z"/>
        <path fill="rgb(0,0,0)" stroke="none" d="M 494,2035 C 491,2035 487,2035 484,2033 481,2032 478,2030 476,2028 473,2025 471,2022 470,2019 469,2015 468,2011 468,2007 468,2002 469,1998 470,1995 471,1991 473,1988 476,1986 478,1983 481,1982 484,1980 486,1979 490,1978 493,1978 496,1978 499,1979 502,1980 505,1981 507,1983 509,1985 511,1987 512,1990 513,1993 514,1996 515,2000 515,2004 515,2005 515,2006 515,2007 515,2007 515,2008 515,2009 L 477,2009 C 478,2015 479,2019 483,2023 486,2026 490,2028 496,2028 498,2028 501,2027 503,2027 505,2026 507,2025 509,2024 L 513,2030 C 510,2031 508,2032 505,2033 502,2035 498,2035 494,2035 L 494,2035 Z M 477,2002 L 507,2002 C 507,1997 505,1993 503,1990 501,1987 497,1986 493,1986 491,1986 489,1986 487,1987 486,1987 484,1988 482,1990 481,1991 480,1993 479,1995 478,1997 477,2000 477,2002 L 477,2002 Z"/>
        <path fill="rgb(0,0,0)" stroke="none" d="M 552,2034 L 552,1961 574,1961 C 578,1961 582,1961 585,1962 589,1963 592,1964 594,1965 596,1967 598,1969 600,1972 601,1975 602,1978 602,1982 602,1986 601,1989 600,1992 598,1995 597,1997 594,1999 592,2001 589,2003 585,2003 582,2004 578,2005 574,2005 L 562,2005 562,2034 552,2034 552,2034 Z M 562,1997 L 573,1997 C 580,1997 584,1996 588,1994 591,1991 592,1987 592,1982 592,1977 591,1973 587,1971 584,1969 579,1968 573,1968 L 562,1968 562,1997 562,1997 Z"/>
        <path fill="rgb(0,0,0)" stroke="none" d="M 616,2034 L 616,1980 624,1980 625,1989 625,1989 C 627,1986 629,1983 632,1981 635,1979 638,1978 641,1978 643,1978 645,1979 647,1979 L 645,1987 C 644,1987 643,1987 642,1987 642,1987 641,1987 640,1987 637,1987 635,1987 632,1989 630,1991 627,1994 625,1999 L 625,2034 616,2034 616,2034 Z"/>
        <path fill="rgb(0,0,0)" stroke="none" d="M 676,2035 C 673,2035 669,2035 666,2033 663,2032 661,2030 658,2028 656,2025 654,2022 653,2019 651,2015 650,2011 650,2007 650,2002 651,1998 653,1995 654,1991 656,1988 658,1986 661,1983 663,1981 666,1980 669,1979 673,1978 676,1978 680,1978 683,1979 686,1980 689,1981 692,1983 694,1986 696,1988 698,1991 700,1995 701,1998 702,2002 702,2007 702,2011 701,2015 700,2019 698,2022 696,2025 694,2028 692,2030 689,2032 686,2033 683,2035 680,2035 676,2035 L 676,2035 Z M 676,2028 C 679,2028 681,2027 683,2026 685,2025 686,2024 688,2022 689,2020 690,2018 691,2015 692,2013 692,2010 692,2007 692,2004 692,2001 691,1998 690,1996 689,1994 688,1992 686,1990 685,1988 683,1987 681,1986 679,1986 676,1986 674,1986 672,1986 670,1987 668,1988 666,1990 665,1992 663,1994 662,1996 661,1998 661,2001 660,2004 660,2007 660,2010 661,2013 661,2015 662,2018 663,2020 665,2022 666,2024 668,2025 670,2026 672,2027 674,2028 676,2028 L 676,2028 Z"/>
        <path fill="rgb(0,0,0)" stroke="none" d="M 732,2035 C 729,2035 727,2035 725,2034 723,2033 721,2032 720,2030 718,2029 718,2027 717,2024 716,2022 716,2020 716,2017 L 716,1987 708,1987 708,1980 717,1980 718,1964 726,1964 726,1980 741,1980 741,1987 726,1987 726,2017 C 726,2021 726,2023 727,2025 729,2027 731,2028 734,2028 735,2028 736,2028 737,2027 739,2027 740,2027 740,2026 L 742,2033 C 741,2034 739,2034 737,2034 736,2035 734,2035 732,2035 L 732,2035 Z"/>
        <path fill="rgb(0,0,0)" stroke="none" d="M 774,2035 C 770,2035 767,2035 764,2033 760,2032 758,2030 755,2028 753,2025 751,2022 750,2019 748,2015 747,2011 747,2007 747,2002 748,1998 750,1995 751,1991 753,1988 755,1986 757,1983 760,1982 763,1980 766,1979 769,1978 772,1978 776,1978 779,1979 782,1980 785,1981 787,1983 789,1985 791,1987 792,1990 793,1993 794,1996 795,2000 795,2004 795,2005 794,2006 794,2007 794,2007 794,2008 794,2009 L 757,2009 C 757,2015 759,2019 762,2023 766,2026 770,2028 775,2028 778,2028 780,2027 783,2027 785,2026 787,2025 789,2024 L 792,2030 C 790,2031 787,2032 784,2033 781,2035 778,2035 774,2035 L 774,2035 Z M 757,2002 L 786,2002 C 786,1997 785,1993 783,1990 780,1987 777,1986 773,1986 771,1986 769,1986 767,1987 765,1987 764,1988 762,1990 761,1991 759,1993 758,1995 758,1997 757,2000 757,2002 L 757,2002 Z"/>
        <path fill="rgb(0,0,0)" stroke="none" d="M 820,2033 C 817,2032 814,2030 812,2028 809,2025 807,2022 806,2019 805,2015 804,2011 804,2007 804,2002 805,1998 806,1995 808,1991 810,1988 812,1986 815,1983 817,1981 821,1980 824,1979 827,1978 831,1978 834,1978 838,1979 840,1980 843,1981 845,1983 847,1985 L 842,1991 C 841,1989 839,1988 837,1987 835,1986 833,1986 831,1986 829,1986 826,1986 824,1987 822,1988 820,1990 819,1992 817,1994 816,1996 815,1998 814,2001 814,2004 814,2007 814,2010 814,2013 815,2015 816,2018 817,2020 818,2022 820,2024 822,2025 824,2026 826,2027 828,2028 831,2028 834,2028 836,2027 838,2026 840,2025 842,2024 844,2022 L 848,2028 C 846,2030 843,2032 840,2033 838,2034 835,2035 833,2035 L 830,2041 C 833,2042 835,2042 837,2044 838,2045 839,2047 839,2049 839,2052 837,2055 834,2056 831,2058 826,2059 820,2059 L 819,2055 C 824,2054 827,2054 829,2053 831,2052 832,2051 832,2049 832,2047 831,2046 830,2046 828,2045 826,2044 823,2044 L 827,2035 C 825,2035 822,2034 820,2033 Z"/>
        <path fill="rgb(0,0,0)" stroke="none" d="M 872,2035 C 867,2035 863,2034 860,2031 857,2028 856,2025 856,2020 856,2014 858,2009 864,2006 869,2003 878,2001 890,1999 890,1998 890,1996 889,1994 889,1993 888,1991 887,1990 887,1989 885,1988 884,1987 882,1986 881,1986 878,1986 875,1986 872,1986 869,1988 867,1989 864,1990 862,1992 L 858,1985 C 861,1984 864,1982 868,1981 871,1979 875,1978 880,1978 887,1978 892,1980 895,1984 898,1988 899,1994 899,2001 L 899,2034 891,2034 891,2027 890,2027 C 888,2029 885,2031 882,2033 879,2034 875,2035 872,2035 L 872,2035 Z M 875,2028 C 877,2028 880,2027 882,2026 885,2025 887,2023 890,2021 L 890,2005 C 885,2006 881,2007 878,2008 875,2008 872,2009 870,2010 868,2012 867,2013 866,2014 865,2016 865,2017 865,2019 865,2022 866,2024 868,2026 870,2027 872,2028 875,2028 L 875,2028 Z M 888,1969 C 886,1969 884,1969 883,1968 881,1967 880,1966 879,1965 877,1964 876,1963 875,1962 874,1961 873,1960 872,1960 870,1960 869,1961 868,1963 867,1964 866,1966 866,1969 L 860,1969 C 860,1966 860,1964 861,1963 861,1961 862,1959 863,1958 864,1956 865,1955 866,1955 868,1954 870,1953 872,1953 874,1953 875,1954 877,1955 878,1956 880,1957 881,1958 882,1959 883,1960 884,1961 885,1962 887,1963 888,1963 890,1963 891,1962 892,1960 893,1959 893,1957 893,1954 L 899,1954 C 899,1957 899,1959 899,1960 898,1962 897,1964 897,1965 896,1966 894,1968 893,1968 892,1969 890,1969 888,1969 L 888,1969 Z"/>
        <path fill="rgb(0,0,0)" stroke="none" d="M 938,2035 C 935,2035 932,2035 928,2033 925,2032 923,2030 920,2028 918,2025 916,2022 915,2019 913,2015 913,2011 913,2007 913,2002 913,1998 915,1995 916,1991 918,1988 920,1986 923,1983 925,1981 928,1980 932,1979 935,1978 938,1978 942,1978 945,1979 948,1980 951,1981 954,1983 956,1986 959,1988 960,1991 962,1995 963,1998 964,2002 964,2007 964,2011 963,2015 962,2019 960,2022 959,2025 956,2028 954,2030 951,2032 948,2033 945,2035 942,2035 938,2035 L 938,2035 Z M 938,2028 C 941,2028 943,2027 945,2026 947,2025 948,2024 950,2022 951,2020 952,2018 953,2015 954,2013 954,2010 954,2007 954,2004 954,2001 953,1998 952,1996 951,1994 950,1992 948,1990 947,1988 945,1987 943,1986 941,1986 938,1986 936,1986 934,1986 932,1987 930,1988 928,1990 927,1992 925,1994 924,1996 923,1998 923,2001 922,2004 922,2007 922,2010 923,2013 923,2015 924,2018 925,2020 927,2022 928,2024 930,2025 932,2026 934,2027 936,2028 938,2028 L 938,2028 Z"/>
        <path fill="rgb(0,0,0)" stroke="none" d="M 1020,2035 C 1013,2035 1008,2033 1004,2028 999,2023 997,2016 997,2007 997,2002 998,1998 999,1995 1001,1991 1003,1988 1005,1986 1007,1984 1009,1982 1012,1980 1015,1979 1018,1978 1022,1978 1025,1978 1027,1979 1030,1980 1032,1981 1035,1983 1037,1985 L 1037,1975 1037,1954 1046,1954 1046,2034 1038,2034 1038,2027 1037,2027 C 1035,2030 1032,2031 1030,2033 1027,2034 1024,2035 1020,2035 L 1020,2035 Z M 1022,2027 C 1025,2027 1027,2027 1030,2026 1032,2024 1034,2023 1037,2020 L 1037,1992 C 1034,1990 1032,1988 1030,1987 1028,1986 1025,1986 1023,1986 1021,1986 1019,1986 1017,1988 1015,1988 1013,1990 1012,1992 1010,1994 1009,1996 1008,1998 1008,2001 1007,2004 1007,2007 1007,2013 1008,2018 1011,2022 1014,2026 1018,2027 1022,2027 L 1022,2027 Z"/>
        <path fill="rgb(0,0,0)" stroke="none" d="M 1078,2035 C 1073,2035 1069,2034 1066,2031 1063,2028 1061,2025 1061,2020 1061,2014 1064,2009 1069,2006 1075,2003 1083,2001 1095,1999 1095,1998 1095,1996 1095,1994 1094,1993 1094,1991 1093,1990 1092,1989 1091,1988 1090,1987 1088,1986 1086,1986 1084,1986 1081,1986 1078,1986 1075,1988 1072,1989 1070,1990 1067,1992 L 1064,1985 C 1066,1984 1069,1982 1073,1981 1077,1979 1081,1978 1086,1978 1092,1978 1097,1980 1100,1984 1103,1988 1105,1994 1105,2001 L 1105,2034 1097,2034 1096,2027 1096,2027 C 1093,2029 1090,2031 1087,2033 1084,2034 1081,2035 1078,2035 L 1078,2035 Z M 1080,2028 C 1083,2028 1085,2027 1088,2026 1090,2025 1093,2023 1095,2021 L 1095,2005 C 1091,2006 1087,2007 1084,2008 1080,2008 1078,2009 1076,2010 1074,2012 1073,2013 1072,2014 1071,2016 1070,2017 1070,2019 1070,2022 1071,2024 1073,2026 1075,2027 1078,2028 1080,2028 L 1080,2028 Z"/>
        <path fill="rgb(0,0,0)" stroke="none" d="M 1159,1993 L 1155,2004 1178,2004 1174,1993 C 1173,1989 1172,1985 1170,1981 1169,1977 1168,1972 1167,1968 L 1166,1968 C 1165,1972 1164,1977 1163,1981 1162,1985 1160,1989 1159,1993 L 1159,1993 Z M 1136,2034 L 1161,1961 1172,1961 1198,2034 1187,2034 1180,2012 1153,2012 1146,2034 1136,2034 1136,2034 Z"/>
        <path fill="rgb(0,0,0)" stroke="none" d="M 1207,2034 L 1207,1980 1215,1980 1216,1987 1216,1987 C 1219,1985 1221,1983 1224,1981 1227,1979 1230,1978 1233,1978 1238,1978 1241,1979 1243,1981 1246,1983 1248,1985 1249,1989 1252,1986 1254,1983 1257,1981 1260,1979 1264,1978 1267,1978 1273,1978 1277,1980 1280,1984 1282,1987 1284,1992 1284,1999 L 1284,2034 1274,2034 1274,2001 C 1274,1996 1274,1992 1272,1990 1270,1987 1268,1986 1264,1986 1260,1986 1255,1989 1250,1995 L 1250,2034 1241,2034 1241,2001 C 1241,1996 1240,1992 1238,1990 1237,1987 1234,1986 1231,1986 1226,1986 1222,1989 1217,1995 L 1217,2034 1207,2034 1207,2034 Z"/>
        <path fill="rgb(0,0,0)" stroke="none" d="M 1315,2035 C 1310,2035 1306,2034 1303,2031 1300,2028 1298,2025 1298,2020 1298,2014 1301,2009 1307,2006 1312,2003 1321,2001 1332,1999 1332,1998 1332,1996 1332,1994 1332,1993 1331,1991 1330,1990 1329,1989 1328,1988 1327,1987 1325,1986 1323,1986 1321,1986 1318,1986 1315,1986 1312,1988 1309,1989 1307,1990 1305,1992 L 1301,1985 C 1303,1984 1307,1982 1310,1981 1314,1979 1318,1978 1323,1978 1329,1978 1334,1980 1337,1984 1340,1988 1342,1994 1342,2001 L 1342,2034 1334,2034 1333,2027 1333,2027 C 1330,2029 1328,2031 1324,2033 1321,2034 1318,2035 1315,2035 L 1315,2035 Z M 1317,2028 C 1320,2028 1323,2027 1325,2026 1327,2025 1330,2023 1332,2021 L 1332,2005 C 1328,2006 1324,2007 1321,2008 1318,2008 1315,2009 1313,2010 1311,2012 1310,2013 1309,2014 1308,2016 1308,2017 1308,2019 1308,2022 1309,2024 1310,2026 1312,2027 1315,2028 1317,2028 L 1317,2028 Z"/>
        <path fill="rgb(0,0,0)" stroke="none" d="M 1354,2034 L 1354,2029 1383,1987 1357,1987 1357,1980 1395,1980 1395,1985 1365,2026 1396,2026 1396,2034 1354,2034 1354,2034 Z"/>
        <path fill="rgb(0,0,0)" stroke="none" d="M 1428,2035 C 1425,2035 1422,2035 1419,2033 1416,2032 1413,2030 1410,2028 1408,2025 1406,2022 1405,2019 1403,2015 1403,2011 1403,2007 1403,2002 1403,1998 1405,1995 1406,1991 1408,1988 1410,1986 1413,1983 1416,1981 1419,1980 1422,1979 1425,1978 1428,1978 1432,1978 1435,1979 1438,1980 1441,1981 1444,1983 1446,1986 1449,1988 1451,1991 1452,1995 1453,1998 1454,2002 1454,2007 1454,2011 1453,2015 1452,2019 1451,2022 1449,2025 1446,2028 1444,2030 1441,2032 1438,2033 1435,2035 1432,2035 1428,2035 L 1428,2035 Z M 1428,2028 C 1431,2028 1433,2027 1435,2026 1437,2025 1439,2024 1440,2022 1441,2020 1442,2018 1443,2015 1444,2013 1444,2010 1444,2007 1444,2004 1444,2001 1443,1998 1442,1996 1441,1994 1440,1992 1439,1990 1437,1988 1435,1987 1433,1986 1431,1986 1428,1986 1426,1986 1424,1986 1422,1987 1420,1988 1418,1990 1417,1992 1415,1994 1414,1996 1414,1998 1413,2001 1412,2004 1412,2007 1412,2010 1413,2013 1414,2015 1414,2018 1415,2020 1417,2022 1418,2024 1420,2025 1422,2026 1424,2027 1426,2028 1428,2028 L 1428,2028 Z M 1411,1967 L 1424,1951 1433,1951 1446,1967 1442,1970 1429,1958 1428,1958 1415,1970 1411,1967 1411,1967 Z"/>
        <path fill="rgb(0,0,0)" stroke="none" d="M 1469,2034 L 1469,1980 1476,1980 1477,1987 1478,1987 C 1480,1985 1483,1983 1486,1981 1489,1979 1492,1978 1496,1978 1502,1978 1506,1980 1509,1984 1512,1987 1513,1992 1513,1999 L 1513,2034 1504,2034 1504,2001 C 1504,1996 1503,1992 1501,1990 1500,1987 1497,1986 1493,1986 1490,1986 1488,1987 1486,1988 1483,1990 1481,1992 1478,1995 L 1478,2034 1469,2034 1469,2034 Z"/>
        <path fill="rgb(0,0,0)" stroke="none" d="M 1531,2034 L 1531,1980 1540,1980 1540,2034 1531,2034 1531,2034 Z M 1536,1968 C 1534,1968 1533,1968 1531,1967 1530,1966 1529,1964 1529,1963 1529,1961 1530,1959 1531,1958 1533,1957 1534,1957 1536,1957 1538,1957 1539,1957 1540,1958 1542,1959 1542,1961 1542,1963 1542,1964 1542,1966 1540,1967 1539,1968 1538,1968 1536,1968 L 1536,1968 Z"/>
        <path fill="rgb(0,0,0)" stroke="none" d="M 1572,2035 C 1567,2035 1563,2034 1560,2031 1557,2028 1556,2025 1556,2020 1556,2014 1558,2009 1564,2006 1569,2003 1578,2001 1590,1999 1590,1998 1590,1996 1589,1994 1589,1993 1588,1991 1588,1990 1587,1989 1585,1988 1584,1987 1583,1986 1581,1986 1578,1986 1575,1986 1572,1986 1569,1988 1567,1989 1564,1990 1562,1992 L 1558,1985 C 1561,1984 1564,1982 1568,1981 1571,1979 1575,1978 1580,1978 1587,1978 1592,1980 1595,1984 1598,1988 1599,1994 1599,2001 L 1599,2034 1592,2034 1591,2027 1590,2027 C 1588,2029 1585,2031 1582,2033 1579,2034 1575,2035 1572,2035 L 1572,2035 Z M 1575,2028 C 1577,2028 1580,2027 1582,2026 1585,2025 1587,2023 1590,2021 L 1590,2005 C 1585,2006 1581,2007 1578,2008 1575,2008 1572,2009 1570,2010 1568,2012 1567,2013 1566,2014 1565,2016 1565,2017 1565,2019 1565,2022 1566,2024 1568,2026 1570,2027 1572,2028 1575,2028 L 1575,2028 Z"/>
        <path fill="rgb(255,255,255)" stroke="none" d="M 1523,724 C 1523,1124 1199,1448 799,1448 400,1448 76,1124 76,724 76,325 400,1 799,1 1199,1 1523,325 1523,724 L 1523,724 Z"/>
        <path fill="rgb(120,197,219)" stroke="none" d="M 704,407 C 698,395 647,295 695,200 743,106 850,88 889,81 974,67 1043,93 1085,109 1155,136 1201,174 1235,203 1285,244 1328,293 1363,348 1324,377 1280,398 1232,407 1185,417 1145,413 1120,410 1076,405 1066,397 1018,387 982,378 911,363 829,373 786,378 744,390 704,407 L 704,407 Z"/>
        <path fill="rgb(64,162,57)" stroke="none" d="M 208,386 C 219,383 230,381 241,379 255,377 269,376 283,376 L 284,376 C 324,376 363,387 363,387 370,389 364,388 417,407 423,409 433,413 446,418 458,423 466,426 468,427 494,438 542,441 587,435 608,433 629,428 650,422 640,404 597,325 622,226 654,98 772,49 784,44 673,46 565,75 468,129 317,213 239,332 208,386 L 208,386 Z"/>
        <path fill="rgb(48,154,64)" stroke="none" d="M 209,385 C 156,473 126,573 121,675 141,667 178,656 224,663 238,665 251,669 264,674 267,640 274,606 284,572 303,507 334,445 374,390 321,373 263,371 209,385 L 209,385 209,385 Z"/>
        <path fill="rgb(25,139,66)" stroke="none" d="M 121,675 C 112,796 136,918 191,1026 217,994 254,973 295,967 266,872 256,773 264,674 241,665 217,660 192,660 167,660 143,665 120,674 L 121,675 121,675 Z"/>
        <path fill="rgb(48,154,64)" stroke="none" d="M 374,390 C 357,436 343,482 332,529 321,577 319,607 318,620 316,644 316,668 318,691 393,712 456,713 502,708 581,701 615,679 698,669 759,661 820,663 880,674 844,642 814,614 792,592 728,530 708,506 698,493 681,470 664,446 650,421 631,427 612,430 593,433 559,437 522,442 480,430 472,428 471,427 460,423 L 459,422 C 442,415 420,407 420,407 410,404 396,398 374,390 L 374,390 Z"/>
        <path fill="rgb(25,139,66)" stroke="none" d="M 318,691 C 320,777 337,861 369,941 422,925 478,915 534,913 564,912 605,910 655,919 691,926 743,940 772,948 781,951 782,951 787,952 822,962 913,987 1019,967 1043,962 1067,955 1090,947 1084,920 1075,894 1062,870 1038,825 1009,796 951,739 934,723 910,700 880,674 795,657 708,659 624,680 525,712 419,715 318,691 L 318,691 318,691 Z"/>
        <path fill="rgb(18,105,55)" stroke="none" d="M 369,941 C 427,1100 521,1243 644,1359 689,1351 734,1341 778,1328 812,1317 850,1305 897,1282 926,1268 947,1257 971,1240 992,1224 1063,1169 1087,1069 1097,1029 1098,987 1090,947 983,982 868,981 761,943 634,899 496,898 369,941 L 369,941 369,941 Z"/>
        <path fill="rgb(33,70,153)" stroke="none" d="M 1150,938 C 1161,994 1156,1036 1150,1063 1103,1284 812,1371 784,1379 757,1386 729,1392 701,1396 763,1404 933,1419 1113,1325 1335,1208 1418,1007 1437,955 1413,966 1387,971 1361,970 1335,969 1309,962 1286,950 1243,933 1196,929 1150,938 L 1150,938 1150,938 Z"/>
        <path fill="rgb(34,115,170)" stroke="none" d="M 971,677 C 971,677 971,677 971,677 971,677 971,677 971,677 L 971,677 Z M 1053,762 C 1084,799 1108,827 1127,870 1137,892 1145,915 1150,939 1161,937 1173,936 1184,936 1206,935 1228,937 1249,941 1300,951 1297,963 1340,970 1374,975 1396,970 1408,967 1418,964 1428,960 1437,955 1469,864 1482,767 1475,671 1433,652 1389,642 1344,643 1298,643 1254,653 1213,672 1136,704 1050,706 971,677 1000,704 1028,732 1053,762 Z"/>
        <path fill="rgb(54,162,193)" stroke="none" d="M 701,402 C 715,430 732,457 752,481 788,524 818,542 872,586 895,606 930,636 971,677 1007,692 1046,699 1085,700 1113,699 1142,696 1170,688 1191,683 1202,679 1219,673 1234,668 1292,648 1349,647 1379,646 1422,649 1475,671 1467,555 1428,444 1363,348 1330,369 1293,386 1255,396 1222,405 1172,418 1119,407 1100,403 1059,394 1053,393 1034,389 1019,385 1008,382 980,374 910,361 826,370 783,375 741,386 701,402 L 701,402 Z"/>
        <path fill="rgb(18,105,55)" stroke="none" d="M 190,1026 C 190,1026 190,1026 190,1026 190,1026 190,1026 190,1026 L 190,1026 Z M 548,1354 C 433,1248 345,1115 295,967 254,972 216,993 190,1026 265,1176 392,1293 548,1354 Z"/>
       </g>
      </g>
     </g>
    </g>
   </g>
  </g>
 </g>
</svg>