<?xml version="1.0" encoding="UTF-8"?>
<!DOCTYPE svg PUBLIC "-//W3C//DTD SVG 1.1//EN" "http://www.w3.org/Graphics/SVG/1.1/DTD/svg11.dtd">
<svg version="1.2" width="15mm" height="15mm" viewBox="0 0 1500 1500" preserveAspectRatio="xMidYMid" fill-rule="evenodd" stroke-width="28.222" stroke-linejoin="round" xmlns="http://www.w3.org/2000/svg" xmlns:ooo="http://xml.openoffice.org/svg/export" xmlns:xlink="http://www.w3.org/1999/xlink" xmlns:presentation="http://sun.com/xmlns/staroffice/presentation" xmlns:smil="http://www.w3.org/2001/SMIL20/" xmlns:anim="urn:oasis:names:tc:opendocument:xmlns:animation:1.0" xmlns:svg="urn:oasis:names:tc:opendocument:xmlns:svg-compatible:1.0" xml:space="preserve">
 <defs class="ClipPathGroup">
  <clipPath id="presentation_clip_path" clipPathUnits="userSpaceOnUse">
   <rect x="0" y="0" width="1500" height="1500"/>
  </clipPath>
  <clipPath id="presentation_clip_path_shrink" clipPathUnits="userSpaceOnUse">
   <rect x="1" y="1" width="1497" height="1497"/>
  </clipPath>
 </defs>
 <defs class="TextShapeIndex">
  <g ooo:slide="id1" ooo:id-list="id3"/>
 </defs>
 <defs class="EmbeddedBulletChars">
  <g id="bullet-char-template-57356" transform="scale(0.00048828125,-0.00048828125)">
   <path d="M 580,1141 L 1163,571 580,0 -4,571 580,1141 Z"/>
  </g>
  <g id="bullet-char-template-57354" transform="scale(0.00048828125,-0.00048828125)">
   <path d="M 8,1128 L 1137,1128 1137,0 8,0 8,1128 Z"/>
  </g>
  <g id="bullet-char-template-10146" transform="scale(0.00048828125,-0.00048828125)">
   <path d="M 174,0 L 602,739 174,1481 1456,739 174,0 Z M 1358,739 L 309,1346 659,739 1358,739 Z"/>
  </g>
  <g id="bullet-char-template-10132" transform="scale(0.00048828125,-0.00048828125)">
   <path d="M 2015,739 L 1276,0 717,0 1260,543 174,543 174,936 1260,936 717,1481 1274,1481 2015,739 Z"/>
  </g>
  <g id="bullet-char-template-10007" transform="scale(0.00048828125,-0.00048828125)">
   <path d="M 0,-2 C -7,14 -16,27 -25,37 L 356,567 C 262,823 215,952 215,954 215,979 228,992 255,992 264,992 276,990 289,987 310,991 331,999 354,1012 L 381,999 492,748 772,1049 836,1024 860,1049 C 881,1039 901,1025 922,1006 886,937 835,863 770,784 769,783 710,716 594,584 L 774,223 C 774,196 753,168 711,139 L 727,119 C 717,90 699,76 672,76 641,76 570,178 457,381 L 164,-76 C 142,-110 111,-127 72,-127 30,-127 9,-110 8,-76 1,-67 -2,-52 -2,-32 -2,-23 -1,-13 0,-2 Z"/>
  </g>
  <g id="bullet-char-template-10004" transform="scale(0.00048828125,-0.00048828125)">
   <path d="M 285,-33 C 182,-33 111,30 74,156 52,228 41,333 41,471 41,549 55,616 82,672 116,743 169,778 240,778 293,778 328,747 346,684 L 369,508 C 377,444 397,411 428,410 L 1163,1116 C 1174,1127 1196,1133 1229,1133 1271,1133 1292,1118 1292,1087 L 1292,965 C 1292,929 1282,901 1262,881 L 442,47 C 390,-6 338,-33 285,-33 Z"/>
  </g>
  <g id="bullet-char-template-9679" transform="scale(0.00048828125,-0.00048828125)">
   <path d="M 813,0 C 632,0 489,54 383,161 276,268 223,411 223,592 223,773 276,916 383,1023 489,1130 632,1184 813,1184 992,1184 1136,1130 1245,1023 1353,916 1407,772 1407,592 1407,412 1353,268 1245,161 1136,54 992,0 813,0 Z"/>
  </g>
  <g id="bullet-char-template-8226" transform="scale(0.00048828125,-0.00048828125)">
   <path d="M 346,457 C 273,457 209,483 155,535 101,586 74,649 74,723 74,796 101,859 155,911 209,963 273,989 346,989 419,989 480,963 531,910 582,859 608,796 608,723 608,648 583,586 532,535 482,483 420,457 346,457 Z"/>
  </g>
  <g id="bullet-char-template-8211" transform="scale(0.00048828125,-0.00048828125)">
   <path d="M -4,459 L 1135,459 1135,606 -4,606 -4,459 Z"/>
  </g>
  <g id="bullet-char-template-61548" transform="scale(0.00048828125,-0.00048828125)">
   <path d="M 173,740 C 173,903 231,1043 346,1159 462,1274 601,1332 765,1332 928,1332 1067,1274 1183,1159 1299,1043 1357,903 1357,740 1357,577 1299,437 1183,322 1067,206 928,148 765,148 601,148 462,206 346,322 231,437 173,577 173,740 Z"/>
  </g>
 </defs>
 <g>
  <g id="id2" class="Master_Slide">
   <g id="bg-id2" class="Background"/>
   <g id="bo-id2" class="BackgroundObjects"/>
  </g>
 </g>
 <g class="SlideGroup">
  <g>
   <g id="container-id1">
    <g id="id1" class="Slide" clip-path="url(#presentation_clip_path)">
     <g class="Page">
      <g class="Graphic">
       <g id="id3">
        <rect class="BoundingBox" stroke="none" fill="none" x="-50" y="2" width="1626" height="2075"/>
        <defs>
         <clipPath id="clip_path_1" clipPathUnits="userSpaceOnUse">
          <path d="M -50,2 L 1575,2 1575,2076 -50,2076 -50,2 Z"/>
         </clipPath>
        </defs>
        <g clip-path="url(#clip_path_1)">
         <path fill="rgb(0,0,0)" stroke="none" d="M 108,1753 C 94,1753 81,1751 68,1746 55,1741 44,1734 35,1725 25,1716 18,1704 13,1690 7,1676 4,1660 4,1642 4,1624 7,1607 13,1593 19,1579 26,1567 36,1557 45,1547 57,1540 69,1535 82,1530 96,1527 110,1527 124,1527 137,1530 148,1536 160,1541 169,1548 177,1556 L 150,1587 C 144,1582 138,1578 132,1575 126,1571 119,1570 111,1570 103,1570 96,1571 89,1575 83,1578 77,1582 72,1588 67,1594 63,1602 60,1610 57,1619 56,1629 56,1640 56,1662 61,1680 71,1692 81,1705 94,1711 110,1711 119,1711 127,1709 134,1705 142,1701 148,1696 154,1690 L 180,1721 C 162,1743 138,1753 108,1753 L 108,1753 108,1753 Z"/>
         <path fill="rgb(0,0,0)" stroke="none" d="M 214,1749 L 214,1531 354,1531 354,1573 265,1573 265,1617 341,1617 341,1658 265,1658 265,1708 357,1708 357,1749 214,1749 214,1749 214,1749 Z"/>
         <path fill="rgb(0,0,0)" stroke="none" d="M 402,1749 L 402,1531 454,1531 512,1640 534,1688 535,1688 C 534,1676 533,1663 531,1649 530,1635 529,1621 529,1608 L 529,1531 577,1531 577,1749 525,1749 467,1641 445,1593 444,1593 C 445,1605 446,1618 447,1632 449,1646 450,1659 450,1672 L 450,1749 402,1749 402,1749 402,1749 Z"/>
         <path fill="rgb(0,0,0)" stroke="none" d="M 698,1753 C 683,1753 669,1751 654,1746 640,1740 627,1732 615,1722 L 644,1688 C 652,1695 661,1700 670,1705 680,1709 690,1711 699,1711 710,1711 717,1709 722,1705 728,1701 730,1696 730,1690 730,1686 730,1684 728,1681 727,1679 724,1677 721,1675 719,1673 715,1671 711,1669 707,1668 703,1666 698,1664 L 669,1652 C 663,1649 658,1647 652,1643 647,1639 642,1635 638,1631 634,1626 630,1620 628,1614 625,1607 624,1600 624,1592 624,1583 626,1575 630,1567 634,1559 639,1552 646,1546 654,1540 662,1536 671,1532 681,1529 692,1527 704,1527 717,1527 729,1530 742,1535 755,1539 765,1547 775,1556 L 750,1587 C 743,1581 735,1577 728,1574 721,1571 713,1570 704,1570 695,1570 688,1571 683,1575 678,1578 675,1583 675,1589 675,1593 676,1596 678,1598 679,1600 682,1602 685,1604 688,1606 692,1608 696,1610 700,1611 704,1613 709,1615 L 738,1627 C 752,1632 762,1639 769,1649 777,1658 781,1670 781,1686 781,1695 779,1704 775,1712 772,1720 766,1727 760,1733 753,1739 744,1744 733,1748 723,1752 711,1753 698,1753 L 698,1753 698,1753 Z"/>
         <path fill="rgb(0,0,0)" stroke="none" d="M 819,1749 L 819,1531 869,1531 869,1749 819,1749 819,1749 819,1749 Z"/>
         <path fill="rgb(0,0,0)" stroke="none" d="M 922,1749 L 922,1531 999,1531 C 1011,1531 1023,1532 1033,1535 1044,1537 1053,1541 1061,1547 1069,1552 1076,1559 1080,1568 1085,1577 1087,1588 1087,1601 1087,1614 1085,1625 1080,1635 1076,1644 1069,1652 1061,1658 1053,1664 1044,1668 1034,1671 1023,1674 1012,1675 1000,1675 L 972,1675 972,1749 922,1749 922,1749 922,1749 Z M 972,1636 L 997,1636 C 1024,1636 1038,1625 1038,1601 1038,1590 1034,1582 1027,1577 1020,1573 1009,1570 996,1570 L 972,1570 972,1636 972,1636 972,1636 Z"/>
         <path fill="rgb(0,0,0)" stroke="none" d="M 1161,1639 L 1156,1659 1203,1659 1198,1639 C 1195,1628 1192,1616 1189,1604 1186,1592 1183,1580 1180,1569 L 1179,1569 C 1176,1580 1173,1592 1170,1604 1167,1617 1165,1628 1161,1639 L 1161,1639 1161,1639 Z M 1080,1749 L 1150,1531 1211,1531 1281,1749 1227,1749 1214,1697 1146,1697 1132,1749 1080,1749 1080,1749 1080,1749 Z"/>
         <path fill="rgb(0,0,0)" stroke="none" d="M 1305,1749 L 1305,1531 1360,1531 1396,1628 C 1399,1635 1401,1641 1403,1648 1405,1655 1407,1662 1409,1668 L 1411,1668 C 1413,1662 1415,1655 1417,1648 1419,1641 1421,1635 1423,1628 L 1459,1531 1513,1531 1513,1749 1468,1749 1468,1669 C 1468,1664 1468,1658 1468,1652 1469,1645 1469,1639 1470,1632 1471,1626 1471,1619 1472,1613 1473,1606 1473,1600 1474,1595 L 1473,1595 1455,1647 1423,1730 1395,1730 1363,1647 1345,1595 1344,1595 C 1345,1600 1345,1606 1346,1613 1347,1619 1347,1626 1348,1632 1349,1639 1349,1645 1350,1652 1350,1658 1350,1664 1350,1669 L 1350,1749 1305,1749 1305,1749 1305,1749 Z"/>
         <path fill="rgb(0,0,0)" stroke="none" d="M 59,1906 C 54,1906 50,1905 46,1903 42,1901 38,1899 35,1896 33,1892 30,1888 29,1884 27,1879 26,1874 26,1868 26,1862 27,1857 29,1852 30,1847 33,1843 36,1840 39,1837 42,1834 46,1832 50,1831 55,1830 59,1830 64,1830 68,1831 71,1833 75,1834 78,1836 80,1839 L 75,1845 C 73,1843 71,1841 68,1840 66,1839 63,1838 60,1838 56,1838 53,1839 50,1840 47,1841 44,1843 42,1846 40,1848 39,1852 38,1855 37,1859 36,1863 36,1867 36,1872 37,1876 38,1880 39,1884 40,1887 42,1889 44,1892 47,1894 49,1895 52,1897 56,1897 59,1897 63,1897 66,1897 69,1895 72,1894 74,1892 77,1889 L 82,1895 C 79,1898 75,1901 72,1903 68,1905 64,1906 59,1906 L 59,1906 59,1906 Z"/>
         <path fill="rgb(0,0,0)" stroke="none" d="M 117,1906 C 114,1906 110,1905 107,1904 104,1902 101,1901 98,1898 96,1896 94,1893 93,1889 91,1886 91,1882 91,1877 91,1873 91,1869 93,1865 94,1862 96,1859 98,1856 101,1854 103,1852 106,1851 109,1849 112,1849 116,1849 119,1849 122,1849 125,1851 128,1852 130,1853 132,1856 134,1858 135,1861 136,1864 137,1867 138,1870 138,1874 138,1875 138,1876 138,1877 138,1878 138,1879 137,1879 L 100,1879 C 100,1885 102,1890 105,1893 109,1897 113,1898 118,1898 121,1898 124,1898 126,1897 128,1896 130,1895 132,1894 L 136,1900 C 133,1902 130,1903 127,1904 125,1905 121,1906 117,1906 L 117,1906 117,1906 Z M 100,1873 L 130,1873 C 130,1867 128,1863 126,1860 124,1857 120,1856 116,1856 114,1856 112,1856 110,1857 108,1858 107,1859 105,1860 104,1862 103,1864 102,1866 101,1868 100,1870 100,1873 L 100,1873 100,1873 Z"/>
         <path fill="rgb(0,0,0)" stroke="none" d="M 151,1904 L 151,1850 159,1850 160,1858 160,1858 C 163,1855 166,1853 169,1851 172,1850 175,1849 179,1849 185,1849 189,1851 192,1854 195,1858 196,1863 196,1870 L 196,1904 187,1904 187,1871 C 187,1866 186,1862 184,1860 182,1858 180,1857 176,1857 173,1857 171,1857 168,1859 166,1860 164,1862 161,1865 L 161,1904 151,1904 151,1904 151,1904 Z"/>
         <path fill="rgb(0,0,0)" stroke="none" d="M 231,1906 C 228,1906 226,1905 224,1904 222,1903 220,1902 219,1901 218,1899 217,1897 216,1895 216,1893 216,1890 216,1888 L 216,1858 207,1858 207,1851 216,1850 217,1835 225,1835 225,1850 240,1850 240,1858 225,1858 225,1888 C 225,1891 226,1894 227,1895 228,1897 230,1898 234,1898 235,1898 236,1898 237,1898 238,1897 239,1897 240,1897 L 242,1904 C 240,1904 238,1905 237,1905 235,1905 233,1906 231,1906 L 231,1906 231,1906 Z"/>
         <path fill="rgb(0,0,0)" stroke="none" d="M 252,1904 L 252,1850 260,1850 261,1860 261,1860 C 263,1856 266,1854 268,1852 271,1850 274,1849 277,1849 279,1849 281,1849 283,1850 L 281,1858 C 280,1858 280,1857 279,1857 278,1857 277,1857 276,1857 274,1857 271,1858 268,1860 266,1862 264,1865 262,1869 L 262,1904 252,1904 252,1904 252,1904 Z"/>
         <path fill="rgb(0,0,0)" stroke="none" d="M 313,1906 C 309,1906 306,1905 303,1904 300,1902 297,1901 295,1898 292,1896 290,1893 289,1889 288,1886 287,1882 287,1877 287,1873 288,1869 289,1865 290,1862 292,1859 295,1856 297,1854 300,1852 303,1851 306,1849 309,1849 313,1849 316,1849 319,1849 322,1851 325,1852 328,1854 330,1856 333,1859 335,1862 336,1865 337,1869 338,1873 338,1877 338,1882 337,1886 336,1889 335,1893 333,1896 330,1898 328,1901 325,1902 322,1904 319,1905 316,1906 313,1906 L 313,1906 313,1906 Z M 313,1898 C 315,1898 317,1898 319,1897 321,1896 323,1894 324,1892 325,1890 327,1888 327,1886 328,1883 329,1880 329,1877 329,1874 328,1871 327,1869 327,1866 325,1864 324,1862 323,1860 321,1859 319,1858 317,1857 315,1856 313,1856 310,1856 308,1857 306,1858 304,1859 302,1860 301,1862 300,1864 298,1866 298,1869 297,1871 297,1874 297,1877 297,1880 297,1883 298,1886 298,1888 300,1890 301,1892 302,1894 304,1896 306,1897 308,1898 310,1898 313,1898 L 313,1898 313,1898 Z"/>
         <path fill="rgb(0,0,0)" stroke="none" d="M 406,1906 C 401,1906 397,1905 392,1903 388,1901 385,1899 382,1896 379,1892 376,1888 375,1884 373,1879 372,1874 372,1868 372,1862 373,1857 375,1852 377,1847 379,1843 382,1840 385,1837 389,1834 393,1832 397,1831 402,1830 407,1830 409,1830 412,1830 414,1831 416,1831 418,1832 420,1833 421,1833 423,1834 424,1836 426,1837 427,1838 428,1839 L 423,1845 C 421,1843 419,1841 416,1840 414,1839 411,1838 407,1838 403,1838 400,1839 397,1840 394,1841 391,1843 389,1846 387,1848 385,1852 384,1855 383,1859 382,1863 382,1867 382,1872 383,1876 384,1880 385,1884 386,1887 388,1889 391,1892 393,1894 396,1895 399,1897 403,1897 407,1897 410,1897 412,1897 414,1896 417,1896 419,1894 420,1893 L 420,1874 405,1874 405,1866 429,1866 429,1897 C 427,1900 423,1902 420,1903 416,1905 411,1906 406,1906 L 406,1906 406,1906 Z"/>
         <path fill="rgb(0,0,0)" stroke="none" d="M 469,1906 C 465,1906 461,1905 458,1904 455,1902 452,1901 450,1898 447,1896 445,1893 444,1889 443,1886 442,1882 442,1877 442,1873 443,1869 444,1865 446,1862 447,1859 450,1856 452,1854 455,1852 458,1851 461,1849 464,1849 467,1849 470,1849 474,1849 476,1851 479,1852 481,1853 483,1856 485,1858 487,1861 488,1864 489,1867 489,1870 489,1874 489,1875 489,1876 489,1877 489,1878 489,1879 489,1879 L 451,1879 C 452,1885 453,1890 457,1893 460,1897 464,1898 470,1898 472,1898 475,1898 477,1897 479,1896 482,1895 484,1894 L 487,1900 C 484,1902 482,1903 479,1904 476,1905 472,1906 469,1906 L 469,1906 469,1906 Z M 451,1873 L 481,1873 C 481,1867 480,1863 477,1860 475,1857 471,1856 467,1856 465,1856 463,1856 461,1857 460,1858 458,1859 457,1860 455,1862 454,1864 453,1866 452,1868 451,1870 451,1873 L 451,1873 451,1873 Z"/>
         <path fill="rgb(0,0,0)" stroke="none" d="M 517,1906 C 513,1906 510,1905 506,1904 502,1902 499,1900 497,1898 L 501,1892 C 504,1894 506,1896 509,1897 511,1898 514,1898 518,1898 521,1898 524,1898 526,1896 528,1894 529,1892 529,1890 529,1889 528,1887 527,1886 527,1885 526,1884 524,1884 523,1883 522,1882 520,1882 519,1881 517,1880 516,1880 514,1879 512,1878 510,1878 508,1877 506,1876 505,1874 503,1873 502,1872 501,1870 500,1868 499,1866 499,1864 499,1862 500,1860 501,1858 502,1856 503,1855 504,1853 506,1852 508,1851 510,1850 513,1849 515,1849 518,1849 522,1849 525,1849 528,1851 531,1852 534,1853 536,1855 L 531,1861 C 529,1859 527,1858 525,1857 523,1856 521,1856 519,1856 515,1856 512,1857 511,1858 509,1860 508,1862 508,1864 508,1865 509,1866 509,1867 510,1868 511,1869 512,1869 513,1870 515,1871 516,1871 518,1872 519,1872 521,1873 523,1874 525,1875 527,1875 529,1876 531,1877 532,1879 534,1880 535,1881 536,1883 537,1885 538,1887 538,1889 538,1892 537,1894 536,1896 535,1898 534,1899 532,1901 531,1902 529,1903 526,1904 523,1905 521,1906 517,1906 L 517,1906 517,1906 Z"/>
         <path fill="rgb(0,0,0)" stroke="none" d="M 566,1906 C 563,1906 560,1905 558,1904 556,1903 555,1902 553,1901 552,1899 551,1897 551,1895 550,1893 550,1890 550,1888 L 550,1858 542,1858 542,1851 550,1850 552,1835 559,1835 559,1850 574,1850 574,1858 559,1858 559,1888 C 559,1891 560,1894 561,1895 563,1897 565,1898 568,1898 569,1898 570,1898 571,1898 572,1897 573,1897 574,1897 L 576,1904 C 575,1904 573,1905 571,1905 569,1905 568,1906 566,1906 L 566,1906 566,1906 Z"/>
         <path fill="rgb(0,0,0)" stroke="none" d="M 607,1906 C 604,1906 600,1905 597,1904 594,1902 591,1901 589,1898 587,1896 585,1893 583,1889 582,1886 581,1882 581,1877 581,1873 582,1869 583,1865 585,1862 587,1859 589,1856 591,1854 594,1852 597,1851 600,1849 604,1849 607,1849 610,1849 614,1849 617,1851 620,1852 623,1854 625,1856 627,1859 629,1862 630,1865 632,1869 633,1873 633,1877 633,1882 632,1886 630,1889 629,1893 627,1896 625,1898 623,1901 620,1902 617,1904 614,1905 610,1906 607,1906 L 607,1906 607,1906 Z M 607,1898 C 609,1898 611,1898 613,1897 615,1896 617,1894 618,1892 620,1890 621,1888 622,1886 623,1883 623,1880 623,1877 623,1874 623,1871 622,1869 621,1866 620,1864 618,1862 617,1860 615,1859 613,1858 611,1857 609,1856 607,1856 605,1856 602,1857 600,1858 598,1859 597,1860 595,1862 594,1864 593,1866 592,1869 591,1871 591,1874 591,1877 591,1880 591,1883 592,1886 593,1888 594,1890 595,1892 597,1894 598,1896 600,1897 602,1898 605,1898 607,1898 L 607,1898 607,1898 Z"/>
         <path fill="rgb(0,0,0)" stroke="none" d="M 647,1904 L 647,1850 655,1850 656,1860 656,1860 C 658,1856 660,1854 663,1852 666,1850 669,1849 672,1849 674,1849 676,1849 678,1850 L 676,1858 C 675,1858 674,1857 674,1857 673,1857 672,1857 671,1857 668,1857 666,1858 663,1860 661,1862 659,1865 657,1869 L 657,1904 647,1904 647,1904 647,1904 Z"/>
         <path fill="rgb(0,0,0)" stroke="none" d="M 732,1906 C 728,1906 725,1905 722,1904 718,1902 716,1901 713,1898 711,1896 709,1893 708,1889 706,1886 706,1882 706,1877 706,1873 706,1869 708,1865 709,1862 711,1859 713,1856 716,1854 718,1852 721,1851 724,1849 727,1849 730,1849 734,1849 737,1849 740,1851 743,1852 745,1853 747,1856 749,1858 750,1861 751,1864 752,1867 753,1870 753,1874 753,1875 753,1876 752,1877 752,1878 752,1879 752,1879 L 715,1879 C 715,1885 717,1890 720,1893 724,1897 728,1898 733,1898 736,1898 738,1898 741,1897 743,1896 745,1895 747,1894 L 750,1900 C 748,1902 745,1903 742,1904 739,1905 736,1906 732,1906 L 732,1906 732,1906 Z M 715,1873 L 744,1873 C 744,1867 743,1863 741,1860 738,1857 735,1856 731,1856 729,1856 727,1856 725,1857 723,1858 722,1859 720,1860 719,1862 718,1864 717,1866 716,1868 715,1870 715,1873 L 715,1873 715,1873 Z"/>
         <path fill="rgb(0,0,0)" stroke="none" d="M 817,1906 C 812,1906 808,1905 804,1903 800,1901 796,1899 794,1895 791,1892 789,1888 787,1883 786,1879 785,1873 785,1867 785,1861 786,1856 787,1852 789,1847 791,1843 794,1840 796,1837 800,1834 804,1832 808,1831 812,1830 817,1830 821,1830 826,1831 830,1832 834,1834 837,1837 840,1840 843,1843 845,1847 846,1852 848,1856 849,1862 849,1867 849,1873 848,1879 846,1883 845,1888 843,1892 840,1895 837,1899 834,1901 830,1903 826,1905 821,1906 817,1906 L 817,1906 817,1906 Z M 817,1897 C 820,1897 823,1897 826,1895 828,1894 831,1892 833,1889 835,1887 836,1884 837,1880 838,1876 839,1872 839,1867 839,1863 838,1859 837,1855 836,1851 835,1848 833,1846 831,1843 828,1841 826,1840 823,1839 820,1838 817,1838 813,1838 810,1839 808,1840 805,1841 803,1843 801,1846 799,1848 797,1851 796,1855 795,1859 795,1863 795,1867 795,1872 795,1876 796,1880 797,1884 799,1887 801,1889 803,1892 805,1894 808,1895 810,1897 813,1897 817,1897 L 817,1897 817,1897 Z"/>
         <path fill="rgb(0,0,0)" stroke="none" d="M 864,1927 L 864,1850 872,1850 873,1856 873,1856 C 875,1854 878,1852 881,1851 884,1849 887,1849 891,1849 894,1849 897,1849 900,1851 903,1852 905,1854 907,1856 909,1859 910,1862 911,1865 912,1868 913,1872 913,1876 913,1881 912,1885 911,1889 909,1892 908,1895 905,1898 903,1900 901,1902 898,1904 895,1905 892,1906 889,1906 886,1906 883,1905 881,1904 878,1903 876,1901 873,1899 L 873,1909 873,1927 864,1927 864,1927 864,1927 Z M 887,1898 C 889,1898 891,1897 893,1896 895,1895 897,1894 898,1892 900,1890 901,1888 902,1885 902,1883 903,1880 903,1876 903,1873 903,1871 902,1868 901,1866 901,1864 899,1862 898,1860 897,1859 895,1858 893,1857 891,1856 888,1856 886,1856 883,1857 881,1858 879,1860 876,1861 873,1864 L 873,1892 C 876,1894 878,1896 881,1897 883,1898 885,1898 887,1898 L 887,1898 887,1898 Z"/>
         <path fill="rgb(0,0,0)" stroke="none" d="M 950,1906 C 946,1906 943,1905 939,1904 936,1902 933,1901 931,1898 928,1896 927,1893 925,1889 924,1886 923,1882 923,1877 923,1873 924,1869 925,1865 927,1862 929,1859 931,1856 933,1854 936,1852 939,1851 942,1849 945,1849 948,1849 952,1849 955,1849 957,1851 960,1852 963,1853 964,1856 966,1858 968,1861 969,1864 970,1867 970,1870 970,1874 970,1875 970,1876 970,1877 970,1878 970,1879 970,1879 L 932,1879 C 933,1885 935,1890 938,1893 941,1897 946,1898 951,1898 954,1898 956,1898 958,1897 961,1896 963,1895 965,1894 L 968,1900 C 966,1902 963,1903 960,1904 957,1905 954,1906 950,1906 L 950,1906 950,1906 Z M 932,1873 L 962,1873 C 962,1867 961,1863 958,1860 956,1857 953,1856 948,1856 946,1856 944,1856 943,1857 941,1858 939,1859 938,1860 936,1862 935,1864 934,1866 933,1868 933,1870 932,1873 L 932,1873 932,1873 Z"/>
         <path fill="rgb(0,0,0)" stroke="none" d="M 984,1904 L 984,1850 992,1850 993,1860 993,1860 C 995,1856 997,1854 1000,1852 1002,1850 1005,1849 1009,1849 1011,1849 1013,1849 1015,1850 L 1013,1858 C 1012,1858 1011,1857 1010,1857 1009,1857 1008,1857 1007,1857 1005,1857 1003,1858 1000,1860 997,1862 995,1865 993,1869 L 993,1904 984,1904 984,1904 984,1904 Z"/>
         <path fill="rgb(0,0,0)" stroke="none" d="M 1034,1906 C 1029,1906 1025,1904 1022,1902 1019,1899 1017,1895 1017,1890 1017,1884 1020,1880 1025,1877 1031,1873 1039,1871 1051,1870 1051,1868 1051,1867 1051,1865 1050,1863 1050,1862 1049,1861 1048,1859 1047,1858 1046,1858 1044,1857 1042,1856 1040,1856 1037,1856 1034,1857 1031,1858 1028,1859 1026,1861 1023,1862 L 1020,1856 C 1022,1854 1025,1853 1029,1851 1033,1850 1037,1849 1042,1849 1048,1849 1053,1851 1056,1855 1059,1859 1061,1864 1061,1871 L 1061,1904 1053,1904 1052,1898 1052,1898 C 1049,1900 1046,1902 1043,1903 1040,1905 1037,1906 1034,1906 L 1034,1906 1034,1906 Z M 1036,1898 C 1039,1898 1041,1898 1044,1896 1046,1895 1049,1893 1051,1891 L 1051,1876 C 1047,1877 1043,1877 1040,1878 1036,1879 1034,1880 1032,1881 1030,1882 1029,1883 1028,1885 1027,1886 1026,1888 1026,1890 1026,1893 1027,1895 1029,1896 1031,1898 1034,1898 1036,1898 L 1036,1898 1036,1898 Z"/>
         <path fill="rgb(0,0,0)" stroke="none" d="M 1100,1906 C 1097,1906 1093,1905 1090,1904 1087,1902 1084,1901 1082,1898 1079,1896 1077,1893 1076,1889 1075,1886 1074,1882 1074,1877 1074,1873 1075,1869 1076,1865 1078,1862 1080,1859 1082,1856 1085,1854 1087,1852 1091,1851 1094,1849 1097,1849 1101,1849 1105,1849 1108,1849 1110,1851 1113,1852 1115,1853 1117,1855 L 1112,1861 C 1111,1860 1109,1859 1107,1858 1105,1857 1103,1856 1101,1856 1099,1856 1096,1857 1094,1858 1092,1859 1090,1860 1089,1862 1087,1864 1086,1866 1085,1869 1084,1871 1084,1874 1084,1877 1084,1880 1084,1883 1085,1886 1086,1888 1087,1890 1089,1892 1090,1894 1092,1896 1094,1897 1096,1898 1098,1898 1101,1898 1104,1898 1106,1898 1108,1896 1110,1895 1112,1894 1114,1893 L 1118,1899 C 1116,1901 1113,1903 1110,1904 1107,1905 1104,1906 1100,1906 L 1100,1906 1100,1906 Z"/>
         <path fill="rgb(0,0,0)" stroke="none" d="M 1130,1904 L 1130,1850 1140,1850 1140,1904 1130,1904 1130,1904 1130,1904 Z M 1135,1839 C 1133,1839 1132,1838 1130,1837 1129,1836 1129,1835 1129,1833 1129,1831 1129,1830 1130,1829 1132,1828 1133,1827 1135,1827 1137,1827 1138,1828 1140,1829 1141,1830 1142,1831 1142,1833 1142,1835 1141,1836 1140,1837 1138,1838 1137,1839 1135,1839 L 1135,1839 1135,1839 Z"/>
         <path fill="rgb(0,0,0)" stroke="none" d="M 1180,1906 C 1177,1906 1173,1905 1170,1904 1167,1902 1164,1901 1162,1898 1160,1896 1158,1893 1156,1889 1155,1886 1154,1882 1154,1877 1154,1873 1155,1869 1156,1865 1158,1862 1160,1859 1162,1856 1164,1854 1167,1852 1170,1851 1173,1849 1177,1849 1180,1849 1183,1849 1187,1849 1190,1851 1193,1852 1196,1854 1198,1856 1200,1859 1202,1862 1204,1865 1205,1869 1206,1873 1206,1877 1206,1882 1205,1886 1204,1889 1202,1893 1200,1896 1198,1898 1196,1901 1193,1902 1190,1904 1187,1905 1183,1906 1180,1906 L 1180,1906 1180,1906 Z M 1180,1898 C 1182,1898 1185,1898 1187,1897 1188,1896 1190,1894 1192,1892 1193,1890 1194,1888 1195,1886 1196,1883 1196,1880 1196,1877 1196,1874 1196,1871 1195,1869 1194,1866 1193,1864 1192,1862 1190,1860 1188,1859 1187,1858 1185,1857 1182,1856 1180,1856 1178,1856 1175,1857 1173,1858 1172,1859 1170,1860 1168,1862 1167,1864 1166,1866 1165,1869 1164,1871 1164,1874 1164,1877 1164,1880 1164,1883 1165,1886 1166,1888 1167,1890 1168,1892 1170,1894 1172,1896 1173,1897 1175,1898 1178,1898 1180,1898 L 1180,1898 1180,1898 Z"/>
         <path fill="rgb(0,0,0)" stroke="none" d="M 1220,1904 L 1220,1850 1228,1850 1229,1858 1229,1858 C 1232,1855 1235,1853 1238,1851 1240,1850 1244,1849 1248,1849 1254,1849 1258,1851 1261,1854 1263,1858 1265,1863 1265,1870 L 1265,1904 1255,1904 1255,1871 C 1255,1866 1255,1862 1253,1860 1251,1858 1248,1857 1245,1857 1242,1857 1239,1857 1237,1859 1235,1860 1232,1862 1230,1865 L 1230,1904 1220,1904 1220,1904 1220,1904 Z"/>
         <path fill="rgb(0,0,0)" stroke="none" d="M 1296,1906 C 1291,1906 1287,1904 1284,1902 1281,1899 1279,1895 1279,1890 1279,1884 1282,1880 1287,1877 1293,1873 1301,1871 1313,1870 1313,1868 1313,1867 1313,1865 1312,1863 1312,1862 1311,1861 1310,1859 1309,1858 1307,1858 1306,1857 1304,1856 1302,1856 1299,1856 1296,1857 1293,1858 1290,1859 1288,1861 1285,1862 L 1282,1856 C 1284,1854 1287,1853 1291,1851 1295,1850 1299,1849 1304,1849 1310,1849 1315,1851 1318,1855 1321,1859 1323,1864 1323,1871 L 1323,1904 1315,1904 1314,1898 1314,1898 C 1311,1900 1308,1902 1305,1903 1302,1905 1299,1906 1296,1906 L 1296,1906 1296,1906 Z M 1298,1898 C 1301,1898 1303,1898 1306,1896 1308,1895 1311,1893 1313,1891 L 1313,1876 C 1309,1877 1305,1877 1302,1878 1298,1879 1296,1880 1294,1881 1292,1882 1291,1883 1290,1885 1289,1886 1288,1888 1288,1890 1288,1893 1289,1895 1291,1896 1293,1898 1296,1898 1298,1898 L 1298,1898 1298,1898 Z"/>
         <path fill="rgb(0,0,0)" stroke="none" d="M 1350,1906 C 1347,1906 1344,1905 1343,1903 1341,1900 1340,1897 1340,1893 L 1340,1825 1350,1825 1350,1894 C 1350,1896 1350,1897 1350,1897 1351,1898 1352,1898 1352,1898 1353,1898 1353,1898 1353,1898 L 1354,1898 1356,1905 C 1355,1905 1354,1905 1353,1905 1353,1906 1351,1906 1350,1906 L 1350,1906 1350,1906 Z"/>
         <path fill="rgb(0,0,0)" stroke="none" d="M 1411,1906 C 1404,1906 1399,1903 1394,1898 1390,1893 1388,1886 1388,1877 1388,1873 1389,1869 1390,1865 1392,1862 1393,1859 1396,1856 1398,1854 1400,1852 1403,1851 1406,1849 1409,1849 1412,1849 1415,1849 1418,1849 1421,1850 1423,1852 1425,1853 1428,1855 L 1427,1846 1427,1825 1437,1825 1437,1904 1429,1904 1428,1898 1428,1898 C 1426,1900 1423,1902 1420,1903 1417,1905 1414,1906 1411,1906 L 1411,1906 1411,1906 Z M 1413,1898 C 1416,1898 1418,1897 1421,1896 1423,1895 1425,1893 1427,1890 L 1427,1862 C 1425,1860 1423,1859 1421,1858 1418,1857 1416,1856 1414,1856 1412,1856 1410,1857 1408,1858 1406,1859 1404,1860 1403,1862 1401,1864 1400,1866 1399,1869 1398,1871 1398,1874 1398,1877 1398,1884 1399,1889 1402,1892 1405,1896 1408,1898 1413,1898 L 1413,1898 1413,1898 Z"/>
         <path fill="rgb(0,0,0)" stroke="none" d="M 1477,1906 C 1474,1906 1470,1905 1467,1904 1464,1902 1462,1901 1459,1898 1457,1896 1455,1893 1453,1889 1452,1886 1451,1882 1451,1877 1451,1873 1452,1869 1453,1865 1455,1862 1457,1859 1459,1856 1462,1854 1464,1852 1467,1851 1470,1849 1474,1849 1477,1849 1481,1849 1484,1849 1487,1851 1490,1852 1493,1854 1495,1856 1497,1859 1499,1862 1501,1865 1502,1869 1503,1873 1503,1877 1503,1882 1502,1886 1501,1889 1499,1893 1497,1896 1495,1898 1493,1901 1490,1902 1487,1904 1484,1905 1481,1906 1477,1906 L 1477,1906 1477,1906 Z M 1477,1898 C 1479,1898 1482,1898 1484,1897 1486,1896 1487,1894 1489,1892 1490,1890 1491,1888 1492,1886 1493,1883 1493,1880 1493,1877 1493,1874 1493,1871 1492,1869 1491,1866 1490,1864 1489,1862 1487,1860 1486,1859 1484,1858 1482,1857 1479,1856 1477,1856 1475,1856 1473,1857 1471,1858 1469,1859 1467,1860 1465,1862 1464,1864 1463,1866 1462,1869 1462,1871 1461,1874 1461,1877 1461,1880 1462,1883 1462,1886 1463,1888 1464,1890 1465,1892 1467,1894 1469,1896 1471,1897 1473,1898 1475,1898 1477,1898 L 1477,1898 1477,1898 Z"/>
         <path fill="rgb(0,0,0)" stroke="none" d="M -10,2048 C -15,2048 -20,2047 -25,2045 -29,2043 -33,2041 -36,2037 L -31,2031 C -28,2034 -25,2036 -21,2038 -18,2039 -14,2040 -10,2040 -5,2040 -1,2039 2,2037 4,2035 6,2032 6,2028 6,2026 5,2025 5,2023 4,2022 3,2021 2,2020 1,2019 0,2018 -2,2017 -3,2017 -5,2016 -7,2015 L -17,2011 C -19,2010 -21,2009 -23,2008 -25,2007 -26,2006 -28,2004 -29,2003 -30,2001 -31,1999 -32,1997 -33,1994 -33,1992 -33,1989 -32,1986 -31,1984 -30,1982 -28,1980 -26,1978 -24,1976 -21,1975 -19,1974 -16,1973 -13,1972 -9,1972 -5,1972 0,1973 3,1975 7,1977 10,1979 13,1981 L 8,1987 C 6,1985 3,1984 0,1982 -2,1981 -6,1980 -9,1980 -13,1980 -17,1981 -19,1983 -22,1985 -23,1988 -23,1991 -23,1993 -23,1994 -22,1996 -21,1997 -20,1998 -19,1999 -18,2000 -16,2001 -15,2001 -14,2002 -12,2003 -11,2003 L 0,2008 C 2,2009 4,2010 6,2011 8,2012 10,2013 11,2015 12,2016 13,2018 14,2020 15,2022 15,2025 15,2027 15,2030 15,2033 14,2035 12,2038 11,2040 9,2042 6,2044 4,2045 1,2047 -3,2048 -6,2048 -10,2048 L -10,2048 -10,2048 Z"/>
         <path fill="rgb(0,0,0)" stroke="none" d="M 29,2047 L 29,1993 39,1993 39,2047 29,2047 29,2047 29,2047 Z M 34,1981 C 32,1981 31,1981 29,1980 28,1979 28,1977 28,1976 28,1974 28,1972 29,1971 31,1970 32,1970 34,1970 36,1970 37,1970 39,1971 40,1972 41,1974 41,1976 41,1977 40,1979 39,1980 37,1981 36,1981 34,1981 L 34,1981 34,1981 Z"/>
         <path fill="rgb(0,0,0)" stroke="none" d="M 72,2048 C 68,2048 64,2047 61,2046 57,2045 54,2043 51,2041 L 56,2035 C 58,2036 61,2038 63,2039 66,2040 69,2041 72,2041 76,2041 79,2040 80,2039 82,2037 83,2035 83,2033 83,2031 83,2030 82,2029 81,2028 80,2027 79,2026 78,2025 77,2025 75,2024 74,2023 72,2023 71,2022 69,2022 67,2021 65,2020 63,2019 61,2018 59,2017 58,2016 56,2014 55,2013 54,2011 54,2009 54,2007 54,2004 54,2002 55,2001 56,1999 57,1997 59,1996 61,1994 63,1993 65,1992 67,1992 70,1991 73,1991 77,1991 80,1992 83,1993 86,1994 88,1996 90,1997 L 86,2003 C 84,2002 82,2001 80,2000 78,1999 76,1998 73,1998 70,1998 67,1999 65,2001 64,2002 63,2004 63,2006 63,2007 63,2009 64,2010 65,2010 66,2011 67,2012 68,2013 69,2013 71,2014 72,2014 74,2015 75,2016 77,2016 79,2017 81,2018 83,2019 85,2020 87,2021 88,2022 90,2024 91,2026 92,2027 92,2029 92,2032 92,2034 92,2036 91,2038 90,2040 89,2042 87,2043 85,2045 83,2046 81,2047 78,2048 75,2048 72,2048 L 72,2048 72,2048 Z"/>
         <path fill="rgb(0,0,0)" stroke="none" d="M 120,2048 C 117,2048 115,2048 113,2047 111,2046 109,2045 108,2043 107,2042 106,2040 105,2037 105,2035 105,2033 105,2030 L 105,2000 96,2000 96,1993 105,1993 106,1977 114,1977 114,1993 129,1993 129,2000 114,2000 114,2030 C 114,2034 115,2036 116,2038 117,2040 119,2041 123,2041 124,2041 125,2041 126,2040 127,2040 128,2040 129,2039 L 131,2046 C 129,2047 128,2047 126,2047 124,2048 122,2048 120,2048 L 120,2048 120,2048 Z"/>
         <path fill="rgb(0,0,0)" stroke="none" d="M 162,2048 C 159,2048 155,2048 152,2046 149,2045 146,2043 144,2041 141,2038 139,2035 138,2032 137,2028 136,2024 136,2020 136,2015 137,2011 138,2008 139,2004 141,2001 144,1999 146,1996 149,1995 152,1993 154,1992 158,1991 161,1991 164,1991 167,1992 170,1993 173,1994 175,1996 177,1998 179,2000 180,2003 181,2006 182,2009 183,2013 183,2017 183,2018 183,2019 183,2020 183,2020 183,2021 183,2022 L 145,2022 C 146,2028 147,2032 151,2036 154,2039 158,2041 164,2041 166,2041 169,2040 171,2040 173,2039 175,2038 177,2037 L 181,2043 C 178,2044 176,2045 173,2046 170,2048 166,2048 162,2048 L 162,2048 162,2048 Z M 145,2015 L 175,2015 C 175,2010 173,2006 171,2003 169,2000 165,1999 161,1999 159,1999 157,1999 155,2000 154,2000 152,2001 150,2003 149,2004 148,2006 147,2008 146,2010 145,2013 145,2015 L 145,2015 145,2015 Z"/>
         <path fill="rgb(0,0,0)" stroke="none" d="M 197,2047 L 197,1993 204,1993 205,2000 206,2000 C 208,1998 211,1996 213,1994 216,1992 219,1991 223,1991 227,1991 230,1992 233,1994 235,1996 237,1998 238,2002 241,1999 244,1996 247,1994 250,1992 253,1991 256,1991 262,1991 266,1993 269,1997 272,2000 273,2005 273,2012 L 273,2047 264,2047 264,2014 C 264,2009 263,2005 261,2003 260,2000 257,1999 254,1999 249,1999 245,2002 240,2008 L 240,2047 230,2047 230,2014 C 230,2009 229,2005 228,2003 226,2000 223,1999 220,1999 216,1999 211,2002 206,2008 L 206,2047 197,2047 197,2047 197,2047 Z"/>
         <path fill="rgb(0,0,0)" stroke="none" d="M 304,2048 C 299,2048 296,2047 292,2044 289,2041 288,2038 288,2033 288,2027 291,2022 296,2019 301,2016 310,2014 322,2012 322,2011 322,2009 321,2007 321,2006 320,2004 320,2003 319,2002 318,2001 316,2000 315,1999 313,1999 310,1999 307,1999 304,1999 301,2001 299,2002 296,2003 294,2005 L 290,1998 C 293,1997 296,1995 300,1994 303,1992 308,1991 312,1991 319,1991 324,1993 327,1997 330,2001 331,2007 331,2014 L 331,2047 324,2047 323,2040 322,2040 C 320,2042 317,2044 314,2046 311,2047 308,2048 304,2048 L 304,2048 304,2048 Z M 307,2041 C 309,2041 312,2040 314,2039 317,2038 319,2036 322,2034 L 322,2018 C 317,2019 313,2020 310,2021 307,2021 304,2022 302,2023 301,2025 299,2026 298,2027 297,2029 297,2030 297,2032 297,2035 298,2037 300,2039 302,2040 304,2041 307,2041 L 307,2041 307,2041 Z"/>
         <path fill="rgb(0,0,0)" stroke="none" d="M 391,2048 C 384,2048 378,2046 374,2041 370,2036 368,2029 368,2020 368,2015 368,2011 370,2008 371,2004 373,2001 375,1999 377,1997 380,1995 383,1993 386,1992 389,1991 392,1991 395,1991 398,1992 400,1993 402,1994 405,1996 407,1998 L 407,1988 407,1967 416,1967 416,2047 409,2047 408,2040 407,2040 C 405,2043 403,2044 400,2046 397,2047 394,2048 391,2048 L 391,2048 391,2048 Z M 393,2040 C 395,2040 398,2040 400,2039 402,2037 405,2036 407,2033 L 407,2005 C 404,2003 402,2001 400,2000 398,1999 396,1999 393,1999 391,1999 389,1999 387,2001 385,2001 383,2003 382,2005 381,2007 379,2009 379,2011 378,2014 377,2017 377,2020 377,2026 379,2031 381,2035 384,2039 388,2040 393,2040 L 393,2040 393,2040 Z"/>
         <path fill="rgb(0,0,0)" stroke="none" d="M 457,2048 C 454,2048 450,2048 447,2046 444,2045 441,2043 439,2041 436,2038 434,2035 433,2032 432,2028 431,2024 431,2020 431,2015 432,2011 433,2008 434,2004 436,2001 439,1999 441,1996 444,1995 447,1993 449,1992 453,1991 456,1991 459,1991 462,1992 465,1993 468,1994 470,1996 472,1998 474,2000 475,2003 476,2006 477,2009 478,2013 478,2017 478,2018 478,2019 478,2020 478,2020 478,2021 478,2022 L 440,2022 C 441,2028 442,2032 446,2036 449,2039 453,2041 459,2041 461,2041 464,2040 466,2040 468,2039 470,2038 472,2037 L 476,2043 C 473,2044 471,2045 468,2046 465,2048 461,2048 457,2048 L 457,2048 457,2048 Z M 440,2015 L 470,2015 C 470,2010 468,2006 466,2003 464,2000 460,1999 456,1999 454,1999 452,1999 450,2000 449,2000 447,2001 445,2003 444,2004 443,2006 442,2008 441,2010 440,2013 440,2015 L 440,2015 440,2015 Z"/>
         <path fill="rgb(0,0,0)" stroke="none" d="M 515,2047 L 515,1974 537,1974 C 541,1974 545,1974 548,1975 552,1976 555,1977 557,1978 559,1980 561,1982 563,1985 564,1988 565,1991 565,1995 565,1999 564,2002 563,2005 561,2008 560,2010 557,2012 555,2014 552,2016 548,2016 545,2017 541,2018 537,2018 L 525,2018 525,2047 515,2047 515,2047 515,2047 Z M 525,2010 L 536,2010 C 543,2010 547,2009 551,2007 554,2004 555,2000 555,1995 555,1990 554,1986 550,1984 547,1982 542,1981 536,1981 L 525,1981 525,2010 525,2010 525,2010 Z"/>
         <path fill="rgb(0,0,0)" stroke="none" d="M 579,2047 L 579,1993 587,1993 588,2002 588,2002 C 590,1999 592,1996 595,1994 598,1992 601,1991 604,1991 606,1991 608,1992 610,1992 L 608,2000 C 607,2000 606,2000 605,2000 605,2000 604,2000 603,2000 600,2000 598,2000 595,2002 593,2004 590,2007 588,2012 L 588,2047 579,2047 579,2047 579,2047 Z"/>
         <path fill="rgb(0,0,0)" stroke="none" d="M 639,2048 C 636,2048 632,2048 629,2046 626,2045 624,2043 621,2041 619,2038 617,2035 616,2032 614,2028 613,2024 613,2020 613,2015 614,2011 616,2008 617,2004 619,2001 621,1999 624,1996 626,1994 629,1993 632,1992 636,1991 639,1991 643,1991 646,1992 649,1993 652,1994 655,1996 657,1999 659,2001 661,2004 663,2008 664,2011 665,2015 665,2020 665,2024 664,2028 663,2032 661,2035 659,2038 657,2041 655,2043 652,2045 649,2046 646,2048 643,2048 639,2048 L 639,2048 639,2048 Z M 639,2041 C 642,2041 644,2040 646,2039 648,2038 649,2037 651,2035 652,2033 653,2031 654,2028 655,2026 655,2023 655,2020 655,2017 655,2014 654,2011 653,2009 652,2007 651,2005 649,2003 648,2001 646,2000 644,1999 642,1999 639,1999 637,1999 635,1999 633,2000 631,2001 629,2003 628,2005 626,2007 625,2009 624,2011 624,2014 623,2017 623,2020 623,2023 624,2026 624,2028 625,2031 626,2033 628,2035 629,2037 631,2038 633,2039 635,2040 637,2041 639,2041 L 639,2041 639,2041 Z"/>
         <path fill="rgb(0,0,0)" stroke="none" d="M 695,2048 C 692,2048 690,2048 688,2047 686,2046 684,2045 683,2043 681,2042 681,2040 680,2037 679,2035 679,2033 679,2030 L 679,2000 671,2000 671,1993 680,1993 681,1977 689,1977 689,1993 704,1993 704,2000 689,2000 689,2030 C 689,2034 689,2036 690,2038 692,2040 694,2041 697,2041 698,2041 699,2041 700,2040 702,2040 703,2040 703,2039 L 705,2046 C 704,2047 702,2047 700,2047 699,2048 697,2048 695,2048 L 695,2048 695,2048 Z"/>
         <path fill="rgb(0,0,0)" stroke="none" d="M 737,2048 C 733,2048 730,2048 727,2046 723,2045 721,2043 718,2041 716,2038 714,2035 713,2032 711,2028 710,2024 710,2020 710,2015 711,2011 713,2008 714,2004 716,2001 718,1999 720,1996 723,1995 726,1993 729,1992 732,1991 735,1991 739,1991 742,1992 745,1993 748,1994 750,1996 752,1998 754,2000 755,2003 756,2006 757,2009 758,2013 758,2017 758,2018 757,2019 757,2020 757,2020 757,2021 757,2022 L 720,2022 C 720,2028 722,2032 725,2036 729,2039 733,2041 738,2041 741,2041 743,2040 746,2040 748,2039 750,2038 752,2037 L 755,2043 C 753,2044 750,2045 747,2046 744,2048 741,2048 737,2048 L 737,2048 737,2048 Z M 720,2015 L 749,2015 C 749,2010 748,2006 746,2003 743,2000 740,1999 736,1999 734,1999 732,1999 730,2000 728,2000 727,2001 725,2003 724,2004 722,2006 721,2008 721,2010 720,2013 720,2015 L 720,2015 720,2015 Z"/>
         <path fill="rgb(0,0,0)" stroke="none" d="M 782,2046 C 779,2045 776,2043 774,2041 771,2038 769,2035 768,2032 767,2028 766,2024 766,2020 766,2015 767,2011 768,2008 770,2004 772,2001 774,1999 777,1996 779,1994 783,1993 786,1992 789,1991 793,1991 796,1991 800,1992 802,1993 805,1994 807,1996 809,1998 L 804,2004 C 803,2002 801,2001 799,2000 797,1999 795,1999 793,1999 791,1999 788,1999 786,2000 784,2001 782,2003 781,2005 779,2007 778,2009 777,2011 776,2014 776,2017 776,2020 776,2023 776,2026 777,2028 778,2031 779,2033 780,2035 782,2037 784,2038 786,2039 788,2040 790,2041 793,2041 796,2041 798,2040 800,2039 802,2038 804,2037 806,2035 L 810,2041 C 808,2043 805,2045 802,2046 800,2047 797,2048 795,2048 L 792,2054 C 795,2055 797,2055 799,2057 800,2058 801,2060 801,2062 801,2065 799,2068 796,2069 793,2071 788,2072 782,2072 L 781,2068 C 786,2067 789,2067 791,2066 793,2065 794,2064 794,2062 794,2060 793,2059 792,2059 790,2058 788,2057 785,2057 L 789,2048 C 787,2048 784,2047 782,2046 L 782,2046 Z"/>
         <path fill="rgb(0,0,0)" stroke="none" d="M 834,2048 C 829,2048 825,2047 822,2044 819,2041 818,2038 818,2033 818,2027 820,2022 826,2019 831,2016 840,2014 852,2012 852,2011 852,2009 851,2007 851,2006 850,2004 849,2003 849,2002 847,2001 846,2000 844,1999 843,1999 840,1999 837,1999 834,1999 831,2001 829,2002 826,2003 824,2005 L 820,1998 C 823,1997 826,1995 830,1994 833,1992 837,1991 842,1991 849,1991 854,1993 857,1997 860,2001 861,2007 861,2014 L 861,2047 853,2047 853,2040 852,2040 C 850,2042 847,2044 844,2046 841,2047 837,2048 834,2048 L 834,2048 834,2048 Z M 837,2041 C 839,2041 842,2040 844,2039 847,2038 849,2036 852,2034 L 852,2018 C 847,2019 843,2020 840,2021 837,2021 834,2022 832,2023 830,2025 829,2026 828,2027 827,2029 827,2030 827,2032 827,2035 828,2037 830,2039 832,2040 834,2041 837,2041 L 837,2041 837,2041 Z M 850,1982 C 848,1982 846,1982 845,1981 843,1980 842,1979 841,1978 839,1977 838,1976 837,1975 836,1974 835,1973 834,1973 832,1973 831,1974 830,1976 829,1977 828,1979 828,1982 L 822,1982 C 822,1979 822,1977 823,1976 823,1974 824,1972 825,1971 826,1969 827,1968 828,1968 830,1967 832,1966 834,1966 836,1966 837,1967 839,1968 840,1969 842,1970 843,1971 844,1972 845,1973 846,1974 847,1975 849,1976 850,1976 852,1976 853,1975 854,1973 855,1972 855,1970 855,1967 L 861,1967 C 861,1970 861,1972 861,1973 860,1975 859,1977 859,1978 858,1979 856,1981 855,1981 854,1982 852,1982 850,1982 L 850,1982 850,1982 Z"/>
         <path fill="rgb(0,0,0)" stroke="none" d="M 900,2048 C 897,2048 894,2048 890,2046 887,2045 885,2043 882,2041 880,2038 878,2035 877,2032 875,2028 875,2024 875,2020 875,2015 875,2011 877,2008 878,2004 880,2001 882,1999 885,1996 887,1994 890,1993 894,1992 897,1991 900,1991 904,1991 907,1992 910,1993 913,1994 916,1996 918,1999 921,2001 922,2004 924,2008 925,2011 926,2015 926,2020 926,2024 925,2028 924,2032 922,2035 921,2038 918,2041 916,2043 913,2045 910,2046 907,2048 904,2048 900,2048 L 900,2048 900,2048 Z M 900,2041 C 903,2041 905,2040 907,2039 909,2038 910,2037 912,2035 913,2033 914,2031 915,2028 916,2026 916,2023 916,2020 916,2017 916,2014 915,2011 914,2009 913,2007 912,2005 910,2003 909,2001 907,2000 905,1999 903,1999 900,1999 898,1999 896,1999 894,2000 892,2001 890,2003 889,2005 887,2007 886,2009 885,2011 885,2014 884,2017 884,2020 884,2023 885,2026 885,2028 886,2031 887,2033 889,2035 890,2037 892,2038 894,2039 896,2040 898,2041 900,2041 L 900,2041 900,2041 Z"/>
         <path fill="rgb(0,0,0)" stroke="none" d="M 982,2048 C 975,2048 970,2046 966,2041 961,2036 959,2029 959,2020 959,2015 960,2011 961,2008 963,2004 965,2001 967,1999 969,1997 971,1995 974,1993 977,1992 980,1991 984,1991 987,1991 989,1992 992,1993 994,1994 997,1996 999,1998 L 999,1988 999,1967 1008,1967 1008,2047 1000,2047 1000,2040 999,2040 C 997,2043 994,2044 992,2046 989,2047 986,2048 982,2048 L 982,2048 982,2048 Z M 984,2040 C 987,2040 989,2040 992,2039 994,2037 996,2036 999,2033 L 999,2005 C 996,2003 994,2001 992,2000 990,1999 987,1999 985,1999 983,1999 981,1999 979,2001 977,2001 975,2003 974,2005 972,2007 971,2009 970,2011 970,2014 969,2017 969,2020 969,2026 970,2031 973,2035 976,2039 980,2040 984,2040 L 984,2040 984,2040 Z"/>
         <path fill="rgb(0,0,0)" stroke="none" d="M 1040,2048 C 1035,2048 1031,2047 1028,2044 1025,2041 1023,2038 1023,2033 1023,2027 1026,2022 1031,2019 1037,2016 1045,2014 1057,2012 1057,2011 1057,2009 1057,2007 1056,2006 1056,2004 1055,2003 1054,2002 1053,2001 1052,2000 1050,1999 1048,1999 1046,1999 1043,1999 1040,1999 1037,2001 1034,2002 1032,2003 1029,2005 L 1026,1998 C 1028,1997 1031,1995 1035,1994 1039,1992 1043,1991 1048,1991 1054,1991 1059,1993 1062,1997 1065,2001 1067,2007 1067,2014 L 1067,2047 1059,2047 1058,2040 1058,2040 C 1055,2042 1052,2044 1049,2046 1046,2047 1043,2048 1040,2048 L 1040,2048 1040,2048 Z M 1042,2041 C 1045,2041 1047,2040 1050,2039 1052,2038 1055,2036 1057,2034 L 1057,2018 C 1053,2019 1049,2020 1046,2021 1042,2021 1040,2022 1038,2023 1036,2025 1035,2026 1034,2027 1033,2029 1032,2030 1032,2032 1032,2035 1033,2037 1035,2039 1037,2040 1040,2041 1042,2041 L 1042,2041 1042,2041 Z"/>
         <path fill="rgb(0,0,0)" stroke="none" d="M 1121,2006 L 1117,2017 1140,2017 1136,2006 C 1135,2002 1134,1998 1132,1994 1131,1990 1130,1985 1129,1981 L 1128,1981 C 1127,1985 1126,1990 1125,1994 1124,1998 1122,2002 1121,2006 L 1121,2006 1121,2006 Z M 1098,2047 L 1123,1974 1134,1974 1160,2047 1149,2047 1142,2025 1115,2025 1108,2047 1098,2047 1098,2047 1098,2047 Z"/>
         <path fill="rgb(0,0,0)" stroke="none" d="M 1169,2047 L 1169,1993 1177,1993 1178,2000 1178,2000 C 1181,1998 1183,1996 1186,1994 1189,1992 1192,1991 1195,1991 1200,1991 1203,1992 1205,1994 1208,1996 1210,1998 1211,2002 1214,1999 1216,1996 1219,1994 1222,1992 1226,1991 1229,1991 1235,1991 1239,1993 1242,1997 1244,2000 1246,2005 1246,2012 L 1246,2047 1236,2047 1236,2014 C 1236,2009 1236,2005 1234,2003 1232,2000 1230,1999 1226,1999 1222,1999 1217,2002 1212,2008 L 1212,2047 1203,2047 1203,2014 C 1203,2009 1202,2005 1200,2003 1199,2000 1196,1999 1193,1999 1188,1999 1184,2002 1179,2008 L 1179,2047 1169,2047 1169,2047 1169,2047 Z"/>
         <path fill="rgb(0,0,0)" stroke="none" d="M 1277,2048 C 1272,2048 1268,2047 1265,2044 1262,2041 1260,2038 1260,2033 1260,2027 1263,2022 1269,2019 1274,2016 1283,2014 1294,2012 1294,2011 1294,2009 1294,2007 1294,2006 1293,2004 1292,2003 1291,2002 1290,2001 1289,2000 1287,1999 1285,1999 1283,1999 1280,1999 1277,1999 1274,2001 1271,2002 1269,2003 1267,2005 L 1263,1998 C 1265,1997 1269,1995 1272,1994 1276,1992 1280,1991 1285,1991 1291,1991 1296,1993 1299,1997 1302,2001 1304,2007 1304,2014 L 1304,2047 1296,2047 1295,2040 1295,2040 C 1292,2042 1290,2044 1286,2046 1283,2047 1280,2048 1277,2048 L 1277,2048 1277,2048 Z M 1279,2041 C 1282,2041 1285,2040 1287,2039 1289,2038 1292,2036 1294,2034 L 1294,2018 C 1290,2019 1286,2020 1283,2021 1280,2021 1277,2022 1275,2023 1273,2025 1272,2026 1271,2027 1270,2029 1270,2030 1270,2032 1270,2035 1271,2037 1272,2039 1274,2040 1277,2041 1279,2041 L 1279,2041 1279,2041 Z"/>
         <path fill="rgb(0,0,0)" stroke="none" d="M 1316,2047 L 1316,2042 1345,2000 1319,2000 1319,1993 1357,1993 1357,1998 1327,2039 1358,2039 1358,2047 1316,2047 1316,2047 1316,2047 Z"/>
         <path fill="rgb(0,0,0)" stroke="none" d="M 1390,2048 C 1387,2048 1384,2048 1381,2046 1378,2045 1375,2043 1372,2041 1370,2038 1368,2035 1367,2032 1365,2028 1365,2024 1365,2020 1365,2015 1365,2011 1367,2008 1368,2004 1370,2001 1372,1999 1375,1996 1378,1994 1381,1993 1384,1992 1387,1991 1390,1991 1394,1991 1397,1992 1400,1993 1403,1994 1406,1996 1408,1999 1411,2001 1413,2004 1414,2008 1415,2011 1416,2015 1416,2020 1416,2024 1415,2028 1414,2032 1413,2035 1411,2038 1408,2041 1406,2043 1403,2045 1400,2046 1397,2048 1394,2048 1390,2048 L 1390,2048 1390,2048 Z M 1390,2041 C 1393,2041 1395,2040 1397,2039 1399,2038 1401,2037 1402,2035 1403,2033 1404,2031 1405,2028 1406,2026 1406,2023 1406,2020 1406,2017 1406,2014 1405,2011 1404,2009 1403,2007 1402,2005 1401,2003 1399,2001 1397,2000 1395,1999 1393,1999 1390,1999 1388,1999 1386,1999 1384,2000 1382,2001 1380,2003 1379,2005 1377,2007 1376,2009 1376,2011 1375,2014 1374,2017 1374,2020 1374,2023 1375,2026 1376,2028 1376,2031 1377,2033 1379,2035 1380,2037 1382,2038 1384,2039 1386,2040 1388,2041 1390,2041 L 1390,2041 1390,2041 Z M 1373,1980 L 1386,1964 1395,1964 1408,1980 1404,1983 1391,1971 1390,1971 1377,1983 1373,1980 1373,1980 1373,1980 Z"/>
         <path fill="rgb(0,0,0)" stroke="none" d="M 1431,2047 L 1431,1993 1438,1993 1439,2000 1440,2000 C 1442,1998 1445,1996 1448,1994 1451,1992 1454,1991 1458,1991 1464,1991 1468,1993 1471,1997 1474,2000 1475,2005 1475,2012 L 1475,2047 1466,2047 1466,2014 C 1466,2009 1465,2005 1463,2003 1462,2000 1459,1999 1455,1999 1452,1999 1450,2000 1448,2001 1445,2003 1443,2005 1440,2008 L 1440,2047 1431,2047 1431,2047 1431,2047 Z"/>
         <path fill="rgb(0,0,0)" stroke="none" d="M 1493,2047 L 1493,1993 1502,1993 1502,2047 1493,2047 1493,2047 1493,2047 Z M 1498,1981 C 1496,1981 1495,1981 1493,1980 1492,1979 1491,1977 1491,1976 1491,1974 1492,1972 1493,1971 1495,1970 1496,1970 1498,1970 1500,1970 1501,1970 1502,1971 1504,1972 1504,1974 1504,1976 1504,1977 1504,1979 1502,1980 1501,1981 1500,1981 1498,1981 L 1498,1981 1498,1981 Z"/>
         <path fill="rgb(0,0,0)" stroke="none" d="M 1534,2048 C 1529,2048 1525,2047 1522,2044 1519,2041 1518,2038 1518,2033 1518,2027 1520,2022 1526,2019 1531,2016 1540,2014 1552,2012 1552,2011 1552,2009 1551,2007 1551,2006 1550,2004 1550,2003 1549,2002 1547,2001 1546,2000 1545,1999 1543,1999 1540,1999 1537,1999 1534,1999 1531,2001 1529,2002 1526,2003 1524,2005 L 1520,1998 C 1523,1997 1526,1995 1530,1994 1533,1992 1537,1991 1542,1991 1549,1991 1554,1993 1557,1997 1560,2001 1561,2007 1561,2014 L 1561,2047 1554,2047 1553,2040 1552,2040 C 1550,2042 1547,2044 1544,2046 1541,2047 1537,2048 1534,2048 L 1534,2048 1534,2048 Z M 1537,2041 C 1539,2041 1542,2040 1544,2039 1547,2038 1549,2036 1552,2034 L 1552,2018 C 1547,2019 1543,2020 1540,2021 1537,2021 1534,2022 1532,2023 1530,2025 1529,2026 1528,2027 1527,2029 1527,2030 1527,2032 1527,2035 1528,2037 1530,2039 1532,2040 1534,2041 1537,2041 L 1537,2041 1537,2041 Z"/>
         <path fill="rgb(255,255,255)" stroke="none" d="M 1485,738 C 1485,1138 1161,1462 762,1462 363,1462 39,1138 39,738 39,340 363,16 762,16 1161,16 1485,340 1485,738 L 1485,738 1485,738 Z"/>
         <path fill="rgb(120,197,219)" stroke="none" d="M 667,422 C 661,410 610,310 658,215 706,121 812,103 851,96 936,82 1005,108 1047,124 1117,151 1163,189 1197,218 1247,259 1290,308 1325,363 1286,392 1242,413 1194,422 1147,432 1107,428 1082,425 1038,420 1028,412 980,402 944,393 873,378 791,388 749,393 707,405 667,422 L 667,422 667,422 Z"/>
         <path fill="rgb(64,162,57)" stroke="none" d="M 171,401 C 182,398 193,396 204,394 218,392 232,391 246,391 L 247,391 C 287,391 326,402 326,402 333,404 327,403 380,422 386,424 396,428 409,433 421,438 429,441 431,442 457,453 505,456 550,450 571,448 592,443 613,437 603,419 560,340 585,241 617,113 735,64 747,59 636,61 528,90 431,144 280,228 202,347 171,401 L 171,401 171,401 Z"/>
         <path fill="rgb(48,154,64)" stroke="none" d="M 172,400 C 119,488 89,588 84,689 104,681 141,670 187,677 201,679 214,683 227,688 230,654 237,620 247,587 266,522 297,460 337,405 284,388 226,386 172,400 L 172,400 172,400 172,400 Z"/>
         <path fill="rgb(25,139,66)" stroke="none" d="M 84,689 C 75,810 99,932 154,1040 180,1008 217,987 258,981 229,886 219,787 227,688 204,679 180,674 155,674 130,674 106,679 83,688 L 84,689 84,689 84,689 Z"/>
         <path fill="rgb(48,154,64)" stroke="none" d="M 337,405 C 320,451 306,497 295,544 284,592 282,621 281,634 279,658 279,682 281,705 356,726 419,727 465,722 544,715 578,693 661,683 722,675 782,677 842,688 806,656 776,628 755,607 691,545 671,521 661,508 644,485 627,461 613,436 594,442 575,445 556,448 522,452 485,457 443,445 435,443 434,442 423,438 L 422,437 C 405,430 383,422 383,422 373,419 359,413 337,405 L 337,405 337,405 Z"/>
         <path fill="rgb(25,139,66)" stroke="none" d="M 281,705 C 283,791 300,875 332,955 385,939 441,929 497,927 527,926 568,924 618,933 654,940 706,954 735,962 744,965 745,965 750,966 784,976 875,1001 981,981 1005,976 1029,969 1052,961 1046,934 1037,908 1024,884 1000,839 971,810 913,753 896,737 872,714 842,688 758,671 671,673 587,694 488,726 382,729 281,705 L 281,705 281,705 281,705 Z"/>
         <path fill="rgb(18,105,55)" stroke="none" d="M 332,955 C 390,1114 484,1257 607,1373 652,1365 697,1355 741,1342 774,1331 812,1319 859,1296 888,1282 909,1271 933,1254 954,1238 1025,1183 1049,1083 1059,1043 1060,1001 1052,961 945,996 830,995 724,957 597,913 459,912 332,955 L 332,955 332,955 332,955 Z"/>
         <path fill="rgb(33,70,153)" stroke="none" d="M 1112,952 C 1123,1008 1118,1050 1112,1077 1065,1298 774,1385 747,1393 720,1400 692,1406 664,1410 726,1418 895,1433 1075,1339 1297,1222 1380,1021 1399,969 1375,980 1349,985 1323,984 1297,983 1271,976 1248,964 1205,947 1158,943 1112,952 L 1112,952 1112,952 1112,952 Z"/>
         <path fill="rgb(34,115,170)" stroke="none" d="M 933,691 L 933,691 933,691 933,691 933,691 Z M 1015,776 C 1046,813 1070,841 1089,884 1099,906 1107,929 1112,953 1123,951 1135,950 1146,950 1168,949 1190,951 1211,955 1262,965 1259,977 1302,984 1336,989 1358,984 1370,981 1380,978 1390,974 1399,969 1431,878 1444,781 1437,685 1395,666 1351,656 1306,657 1260,657 1216,667 1175,686 1098,718 1012,720 933,691 962,718 990,746 1015,776 L 1015,776 Z"/>
         <path fill="rgb(54,162,193)" stroke="none" d="M 664,417 C 678,445 695,472 715,496 751,539 780,557 834,601 857,620 892,650 933,691 969,706 1008,713 1047,714 1075,713 1104,710 1132,702 1153,697 1164,693 1181,687 1196,682 1254,662 1311,661 1341,660 1384,663 1437,685 1429,570 1390,459 1325,363 1292,384 1255,401 1217,411 1184,420 1134,433 1081,422 1062,418 1021,409 1015,408 996,404 981,400 970,397 942,389 872,376 788,385 746,390 704,401 664,417 L 664,417 664,417 Z"/>
         <path fill="rgb(18,105,55)" stroke="none" d="M 153,1040 L 153,1040 153,1040 153,1040 153,1040 Z M 511,1368 C 396,1262 308,1129 258,981 217,986 179,1007 153,1040 228,1190 355,1307 511,1368 L 511,1368 Z"/>
        </g>
       </g>
      </g>
     </g>
    </g>
   </g>
  </g>
 </g>
</svg>